<?xml version="1.0" encoding="utf-8"?>
<!-- Generator: Adobe Illustrator 16.0.0, SVG Export Plug-In . SVG Version: 6.00 Build 0)  -->
<!DOCTYPE svg PUBLIC "-//W3C//DTD SVG 1.1//EN" "http://www.w3.org/Graphics/SVG/1.1/DTD/svg11.dtd">
<svg version="1.1" xmlns="http://www.w3.org/2000/svg" xmlns:xlink="http://www.w3.org/1999/xlink" x="0px" y="0px"
	 width="161.821px" height="59px" viewBox="0 0 161.821 59" enable-background="new 0 0 161.821 59" xml:space="preserve">
<g id="OTHERS">
	<polygon fill-rule="evenodd" clip-rule="evenodd" stroke="#000000" stroke-width="0.5" stroke-miterlimit="2.6131" points="
		-46.35,144.953 248.25,144.953 248.25,297.952 -46.35,297.952 -46.35,144.953 	"/>
	<polygon fill-rule="evenodd" clip-rule="evenodd" fill="#FFFFFF" points="149.801,279.954 248.25,279.954 248.25,297.952 
		135.402,297.952 149.801,279.954 	"/>
	<text transform="matrix(1 0 0 1 161 292.2402)" font-family="'ArialMT'" font-size="11.6729">Negative Logo</text>
	<polygon fill="none" stroke="#000000" stroke-width="0.5" stroke-miterlimit="2.6131" points="-99.75,317.136 301.65,317.136 
		301.65,398.966 -99.75,398.966 -99.75,317.136 	"/>
	<polygon fill-rule="evenodd" clip-rule="evenodd" points="154.301,380.968 301.65,380.968 301.65,398.966 139.902,398.966 
		154.301,380.968 	"/>
	<text transform="matrix(1 0 0 1 174.2012 393.2529)" fill="#FFFFFF" font-family="'ArialMT'" font-size="11.6729">Alternate Compositio</text>
	<text transform="matrix(1 0 0 1 282.5195 393.2529)" fill="#FFFFFF" font-family="'ArialMT'" font-size="11.6729">n</text>
	<polygon fill-rule="evenodd" clip-rule="evenodd" stroke="#000000" stroke-width="0.5" stroke-miterlimit="2.6131" points="
		-99.75,502.026 301.65,502.026 301.65,583.856 -99.75,583.856 -99.75,502.026 	"/>
	<polygon fill-rule="evenodd" clip-rule="evenodd" fill="#FFFFFF" points="154.301,565.856 301.65,565.856 301.65,583.856 
		139.902,583.856 154.301,565.856 	"/>
	<text transform="matrix(1 0 0 1 189.6504 578.1436)" font-family="'ArialMT'" font-size="11.6729">Negative Logo</text>
	<polygon fill="none" stroke="#000000" stroke-width="0.5" stroke-miterlimit="2.6131" points="-99.75,409.581 301.65,409.581 
		301.65,491.411 -99.75,491.411 -99.75,409.581 	"/>
	<polygon fill-rule="evenodd" clip-rule="evenodd" points="154.301,473.411 301.65,473.411 301.65,491.411 139.902,491.411 
		154.301,473.411 	"/>
	<text transform="matrix(1 0 0 1 189.2812 486.668)" fill="#FFFFFF" font-family="'ArialMT'" font-size="11.6729">Black and White</text>
	<polygon fill="none" stroke="#000000" stroke-width="0.5" stroke-miterlimit="2.6131" points="-46.35,-22.954 248.25,-22.954 
		248.25,130.046 -46.35,130.046 -46.35,-22.954 	"/>
	<polygon fill-rule="evenodd" clip-rule="evenodd" points="150.027,112.046 248.25,112.046 248.25,130.046 135.627,130.046 
		150.027,112.046 	"/>
	<text transform="matrix(1 0 0 1 162.3398 124.3335)" fill="#FFFFFF" font-family="'ArialMT'" font-size="11.6729">Black &amp; White</text>
	<polygon fill="none" stroke="#000000" stroke-width="0.5" stroke-miterlimit="2.6131" points="-46.35,-190.861 248.25,-190.861 
		248.25,-37.861 -46.35,-37.861 -46.35,-190.861 	"/>
	<polygon fill-rule="evenodd" clip-rule="evenodd" points="163.002,-55.86 248.25,-55.86 248.25,-37.861 148.602,-37.861 
		163.002,-55.86 	"/>
	<text transform="matrix(1 0 0 1 179.0293 -43.5737)" fill="#FFFFFF" font-family="'ArialMT'" font-size="11.6729">Main Logo</text>
</g>
<g id="LOGO_2">
	<g id="NEGATIVE_1_">
		<g id="OBJECT_4_">
			<path fill-rule="evenodd" clip-rule="evenodd" fill="#00AEEF" d="M-55.294,527.413l43.316-2.42c0,0,6.092-10.131,20.199-10.131
				c15.454,0,22.123,12.793,22.123,12.793c22.209-6.23,32.703,25.68,10.581,25.68c-15.518,0-113.115,0-113.115,0l43.958-2.596
				c-1.764-0.545-6.125-9.586,5.161-10.998c0,0-4.854,1.965-4.746,5.965c0.089,3.242,3.237,4.684,3.237,4.684l65.52-0.996
				c0.845,0.033,9.528-0.83,7.807-8.945c-1.662-7.836-11.478-12.119-19.75-8.656c0,0-6.284-13.914-20.712-14.17
				c-14.429-0.258-19.303,9.777-19.303,9.777L-55.294,527.413L-55.294,527.413z M-15.892,528.94c0,0-8.898-0.338-7.262,6.973
				l-38.383,2.191l42.919,0.006C-22.196,534.806-20.819,530.087-15.892,528.94L-15.892,528.94z"/>
		</g>
		<g id="TEXT_4_">
			<text transform="matrix(1 0 0 1 60.6118 551.9668)"><tspan x="0" y="0" fill="#00AEEF" font-family="'Aller-BoldItalic'" font-size="33.8851">Cloud </tspan><tspan x="95.623" y="0" fill="#FFFFFF" font-family="'Aller-BoldItalic'" font-size="33.8851">Express</tspan></text>
		</g>
	</g>
	<g id="BLACK__x26__WHITE_1_">
		<g id="OBJECT_5_">
			<path fill-rule="evenodd" clip-rule="evenodd" d="M-55.294,433.196l43.316-2.422c0,0,6.092-10.131,20.199-10.131
				c15.454,0,22.123,12.793,22.123,12.793c22.209-6.229,32.703,25.682,10.581,25.682c-15.518,0-113.115,0-113.115,0l43.958-2.598
				c-1.764-0.545-6.125-9.586,5.161-10.996c0,0-4.854,1.963-4.746,5.963c0.089,3.244,3.237,4.684,3.237,4.684l65.52-0.994
				c0.845,0.031,9.528-0.832,7.807-8.945c-1.662-7.838-11.478-12.119-19.75-8.658c0,0-6.284-13.914-20.712-14.17
				c-14.429-0.256-19.303,9.779-19.303,9.779L-55.294,433.196L-55.294,433.196z M-15.892,434.722c0,0-8.898-0.336-7.262,6.973
				l-38.383,2.191l42.919,0.006C-22.196,440.587-20.819,435.868-15.892,434.722L-15.892,434.722z"/>
		</g>
		<g id="TEXT_5_">
			<text transform="matrix(1 0 0 1 60.6118 457.749)" font-family="'Aller-BoldItalic'" font-size="33.8851">Cloud Express</text>
		</g>
	</g>
	<g id="ALTERNATE_COMPOSITION">
		<g id="OBJECT_3_">
			<path fill-rule="evenodd" clip-rule="evenodd" fill="#FFFFFF" d="M-55.294,341.897l43.316-2.422c0,0,6.092-10.131,20.199-10.131
				c15.454,0,22.123,12.793,22.123,12.793c22.209-6.229,32.703,25.682,10.581,25.682c-15.518,0-113.115,0-113.115,0l43.958-2.598
				c-1.764-0.545-6.125-9.586,5.161-10.996c0,0-4.854,1.963-4.746,5.963c0.089,3.244,3.237,4.684,3.237,4.684l65.52-0.994
				c0.845,0.031,9.528-0.832,7.807-8.945c-1.662-7.838-11.478-12.119-19.75-8.658c0,0-6.284-13.914-20.712-14.17
				c-14.429-0.256-19.303,9.779-19.303,9.779L-55.294,341.897L-55.294,341.897z M-15.892,343.423c0,0-8.898-0.336-7.262,6.973
				l-38.383,2.191l42.919,0.006C-22.196,349.288-20.819,344.569-15.892,343.423L-15.892,343.423z"/>
		</g>
		<g id="TEXT_3_">
			<g>
				<path fill="#FFFFFF" d="M72.404,366.856c-2.869,0-4.987-0.801-6.354-2.405c-1.367-1.604-2.05-3.829-2.05-6.676
					c0-1.22,0.107-2.468,0.322-3.744c0.214-1.276,0.547-2.513,1-3.71c0.452-1.197,1.017-2.321,1.694-3.372s1.485-1.965,2.423-2.744
					c0.937-0.78,1.999-1.396,3.185-1.848c1.186-0.451,2.502-0.677,3.948-0.677c1.423,0,2.665,0.215,3.727,0.644
					s1.937,1.039,2.626,1.829c0.688,0.791,1.203,1.757,1.542,2.897c0.339,1.142,0.508,2.435,0.508,3.88
					c0,1.22-0.107,2.469-0.322,3.744c-0.215,1.276-0.548,2.503-1,3.677c-0.452,1.175-1.022,2.282-1.711,3.321
					c-0.689,1.039-1.497,1.942-2.423,2.71c-0.926,0.769-1.982,1.373-3.168,1.813S73.849,366.856,72.404,366.856z M72.844,362.723
					c0.881,0,1.666-0.197,2.355-0.593c0.689-0.395,1.288-0.915,1.796-1.559s0.943-1.39,1.305-2.236
					c0.361-0.848,0.649-1.717,0.864-2.609c0.214-0.893,0.373-1.779,0.474-2.66s0.153-1.683,0.153-2.405
					c0-3.163-1.22-4.744-3.66-4.744c-0.881,0-1.667,0.198-2.355,0.593c-0.689,0.396-1.293,0.915-1.813,1.559
					c-0.52,0.644-0.96,1.39-1.322,2.236c-0.361,0.848-0.649,1.717-0.864,2.609c-0.215,0.893-0.373,1.779-0.475,2.66
					s-0.152,1.694-0.152,2.439C69.151,361.153,70.382,362.723,72.844,362.723z M84.128,368.348
					c-0.022,0.316-0.068,0.666-0.135,1.051c-0.068,0.384-0.153,0.762-0.254,1.135s-0.203,0.717-0.305,1.033
					c-0.102,0.316-0.198,0.576-0.288,0.78l-8.099-1.355c0.045-0.588,0.141-1.237,0.288-1.949c0.146-0.711,0.39-1.372,0.729-1.981
					L84.128,368.348z"/>
				<path fill="#FFFFFF" d="M89.651,348.932c0.429-0.067,0.853-0.118,1.271-0.152s0.819-0.051,1.203-0.051
					c0.768,0,1.547,0.067,2.338,0.203l-1.897,10.741c-0.09,0.452-0.136,0.881-0.136,1.288c0,0.678,0.147,1.152,0.441,1.423
					c0.293,0.271,0.711,0.407,1.253,0.407c0.316,0,0.672-0.079,1.067-0.237c0.395-0.158,0.796-0.491,1.203-1
					c0.407-0.508,0.801-1.22,1.186-2.135c0.384-0.915,0.711-2.14,0.982-3.677l1.254-6.811c0.881-0.136,1.705-0.203,2.474-0.203
					c0.768,0,1.547,0.067,2.338,0.203l-1.831,9.996c-0.248,1.423-0.435,2.683-0.559,3.778c-0.125,1.096-0.187,1.948-0.187,2.559
					c0,0.248,0,0.457,0,0.626c0,0.17,0.011,0.356,0.034,0.56c-0.745,0.136-1.491,0.203-2.236,0.203
					c-0.633,0-1.333-0.067-2.101-0.203c-0.046-0.181-0.091-0.395-0.136-0.644c-0.045-0.249-0.068-0.621-0.068-1.118
					c0-0.204,0.005-0.407,0.017-0.61c0.011-0.203,0.039-0.451,0.084-0.745c-0.271,0.475-0.61,0.927-1.016,1.355
					c-0.407,0.429-0.87,0.802-1.39,1.118s-1.079,0.564-1.677,0.745c-0.599,0.181-1.203,0.271-1.813,0.271
					c-1.355,0-2.412-0.345-3.168-1.034c-0.757-0.688-1.135-1.835-1.135-3.438c0-0.339,0.022-0.7,0.068-1.085
					c0.045-0.384,0.102-0.79,0.169-1.22L89.651,348.932z"/>
				<path fill="#FFFFFF" d="M109.744,352.591h-2.135c0-0.067-0.006-0.135-0.016-0.203c-0.012-0.067-0.018-0.146-0.018-0.237
					c0-0.587,0.057-1.135,0.17-1.644c0.111-0.508,0.281-1.033,0.508-1.575h6.844l-3.082,17.519
					c-0.859,0.136-1.672,0.203-2.439,0.203c-0.701,0-1.459-0.067-2.271-0.203L109.744,352.591z M110.727,345.983
					c-0.021-0.79,0.029-1.542,0.152-2.253c0.125-0.712,0.322-1.463,0.594-2.254c0.406-0.09,0.836-0.152,1.287-0.187
					c0.453-0.033,0.859-0.051,1.221-0.051s0.762,0.018,1.203,0.051c0.439,0.034,0.852,0.097,1.236,0.187
					c0,0.791-0.068,1.548-0.203,2.271c-0.135,0.724-0.34,1.469-0.609,2.236c-0.408,0.068-0.83,0.113-1.271,0.136
					c-0.439,0.022-0.842,0.034-1.203,0.034c-0.338,0-0.734-0.012-1.186-0.034C111.494,346.097,111.088,346.052,110.727,345.983z"/>
				<path fill="#FFFFFF" d="M128.789,362.282c0.248,0.406,0.451,0.893,0.609,1.457c0.158,0.565,0.236,1.311,0.236,2.236
					c-0.723,0.316-1.49,0.542-2.303,0.678c-0.814,0.136-1.707,0.203-2.678,0.203c-2.576,0-4.461-0.627-5.658-1.88
					c-1.199-1.254-1.797-2.977-1.797-5.168c0-1.332,0.221-2.671,0.66-4.016c0.441-1.344,1.09-2.552,1.949-3.625
					c0.857-1.073,1.914-1.949,3.168-2.626c1.254-0.678,2.705-1.017,4.355-1.017c0.768,0,1.512,0.057,2.236,0.169
					c0.723,0.113,1.41,0.294,2.066,0.542c-0.023,0.588-0.125,1.215-0.305,1.881c-0.182,0.667-0.463,1.305-0.848,1.914
					c-0.498-0.203-0.988-0.36-1.475-0.474s-1.021-0.17-1.609-0.17c-0.881,0-1.648,0.198-2.305,0.593
					c-0.654,0.396-1.201,0.915-1.643,1.56c-0.439,0.644-0.768,1.384-0.982,2.219c-0.215,0.836-0.322,1.706-0.322,2.609
					c0,1.243,0.316,2.157,0.949,2.745c0.633,0.587,1.434,0.881,2.406,0.881c0.496,0,0.988-0.045,1.473-0.136
					C127.461,362.769,128.064,362.576,128.789,362.282z"/>
				<path fill="#FFFFFF" d="M135.904,348.254c0.406-2.372,0.609-4.168,0.609-5.388c0-0.248-0.006-0.457-0.018-0.627
					c-0.012-0.169-0.027-0.355-0.051-0.559c0.385-0.068,0.824-0.119,1.322-0.153c0.496-0.033,0.926-0.051,1.287-0.051
					c0.656,0,1.379,0.068,2.17,0.204c0.111,0.339,0.168,0.768,0.168,1.287c0,0.994-0.135,2.202-0.406,3.626l-3.49,19.856
					c-0.812,0.136-1.639,0.203-2.473,0.203c-0.77,0-1.537-0.067-2.305-0.203L135.904,348.254z M139.801,357.268l3.559-4.677
					c0.654-0.857,1.094-1.592,1.32-2.202s0.35-1.096,0.373-1.457c0.475-0.09,0.92-0.146,1.338-0.17
					c0.418-0.021,0.854-0.033,1.305-0.033c0.406,0,0.842,0.017,1.305,0.051s0.887,0.085,1.271,0.152
					c-0.068,0.588-0.277,1.186-0.627,1.796c-0.352,0.61-0.854,1.378-1.508,2.304l-3.422,4.27L148,366.45
					c-0.473,0.045-0.908,0.085-1.305,0.118c-0.395,0.034-0.795,0.051-1.201,0.051c-0.43,0-0.836-0.011-1.221-0.033
					c-0.385-0.023-0.803-0.068-1.254-0.136L139.801,357.268z"/>
				<path fill="#FFFFFF" d="M152.779,356.454c0.248-1.423,0.434-2.683,0.559-3.778c0.123-1.096,0.186-1.948,0.186-2.559
					c0-0.248,0-0.457,0-0.627c0-0.169-0.012-0.355-0.033-0.559c0.746-0.136,1.49-0.203,2.236-0.203c0.338,0,0.678,0.017,1.016,0.051
					c0.34,0.034,0.701,0.085,1.086,0.152c0.045,0.181,0.09,0.396,0.135,0.644c0.045,0.249,0.068,0.622,0.068,1.118
					c0,0.203-0.006,0.407-0.018,0.61s-0.039,0.452-0.084,0.745c0.27-0.475,0.609-0.926,1.016-1.355
					c0.406-0.429,0.869-0.802,1.389-1.118c0.52-0.315,1.08-0.564,1.678-0.745c0.6-0.181,1.203-0.271,1.812-0.271
					c1.355,0,2.412,0.345,3.17,1.034c0.756,0.688,1.135,1.835,1.135,3.438c0,0.339-0.023,0.701-0.068,1.085s-0.102,0.791-0.17,1.22
					l-1.965,11.114c-0.859,0.136-1.684,0.203-2.473,0.203c-0.791,0-1.57-0.067-2.34-0.203l1.898-10.741
					c0.09-0.452,0.135-0.882,0.135-1.288c0-0.678-0.146-1.152-0.439-1.423c-0.295-0.271-0.711-0.407-1.254-0.407
					c-0.316,0-0.672,0.08-1.068,0.237c-0.395,0.158-0.795,0.491-1.201,1c-0.408,0.508-0.803,1.226-1.188,2.151
					c-0.383,0.927-0.711,2.146-0.982,3.66l-1.254,6.811c-0.881,0.136-1.705,0.203-2.473,0.203c-0.791,0-1.57-0.067-2.338-0.203
					L152.779,356.454z"/>
				<path fill="#FFFFFF" d="M177.717,366.856c-2.326,0-4.037-0.609-5.133-1.829s-1.645-2.892-1.645-5.016
					c0-1.355,0.205-2.716,0.611-4.083c0.406-1.366,1.016-2.598,1.83-3.693c0.812-1.096,1.834-1.987,3.066-2.677
					c1.23-0.688,2.67-1.033,4.32-1.033c2.35,0,4.07,0.621,5.166,1.863s1.645,2.926,1.645,5.049c0,1.401-0.197,2.778-0.594,4.134
					c-0.395,1.355-0.998,2.575-1.812,3.66c-0.812,1.084-1.842,1.96-3.084,2.626S179.389,366.856,177.717,366.856z M178.158,363.197
					c0.857,0,1.58-0.271,2.168-0.813s1.068-1.214,1.441-2.016c0.371-0.802,0.637-1.649,0.795-2.542
					c0.158-0.892,0.238-1.699,0.238-2.423c0-2.078-0.848-3.117-2.541-3.117c-0.859,0-1.572,0.283-2.135,0.848
					c-0.566,0.564-1.029,1.253-1.391,2.066s-0.615,1.672-0.762,2.575c-0.148,0.904-0.221,1.706-0.221,2.406
					C175.752,362.192,176.553,363.197,178.158,363.197z"/>
				<path fill="#FFFFFF" d="M205.436,358.86c-0.248,1.423-0.43,2.683-0.541,3.777c-0.113,1.097-0.17,1.949-0.17,2.559
					c0,0.249,0,0.458,0,0.627c0,0.17,0.01,0.355,0.033,0.56c-0.746,0.135-1.48,0.203-2.203,0.203c-0.633,0-1.332-0.068-2.1-0.203
					c-0.047-0.181-0.092-0.396-0.137-0.645c-0.045-0.248-0.066-0.621-0.066-1.118c0-0.203,0.004-0.44,0.016-0.711
					c0.012-0.271,0.039-0.554,0.086-0.848c-0.316,0.521-0.695,1.012-1.135,1.475c-0.441,0.463-0.928,0.863-1.457,1.202
					c-0.531,0.339-1.102,0.61-1.713,0.813c-0.609,0.203-1.254,0.305-1.932,0.305c-1.49,0-2.607-0.474-3.354-1.423
					s-1.119-2.202-1.119-3.761c0-1.694,0.256-3.332,0.764-4.914c0.508-1.581,1.264-2.981,2.27-4.201s2.254-2.197,3.744-2.932
					c1.492-0.733,3.23-1.101,5.219-1.101c0.158,0,0.311,0.006,0.457,0.017c0.146,0.012,0.277,0.017,0.391,0.017
					c0.248-1.332,0.424-2.462,0.525-3.389c0.102-0.926,0.152-1.693,0.152-2.304c0-0.248-0.006-0.457-0.018-0.627
					c-0.012-0.169-0.029-0.355-0.051-0.559c0.385-0.068,0.824-0.119,1.322-0.153c0.496-0.033,0.926-0.051,1.287-0.051
					c0.654,0,1.377,0.068,2.168,0.204c0.113,0.339,0.17,0.768,0.17,1.287c0,0.994-0.135,2.202-0.406,3.626L205.436,358.86z
					 M201.811,352.558c-0.203-0.045-0.402-0.073-0.594-0.085c-0.191-0.011-0.379-0.017-0.559-0.017
					c-1.084,0-2.006,0.271-2.762,0.812c-0.758,0.543-1.385,1.22-1.881,2.033c-0.498,0.813-0.859,1.689-1.084,2.626
					c-0.227,0.938-0.34,1.791-0.34,2.559c0,1.672,0.555,2.508,1.66,2.508c1.086,0,2.09-0.661,3.018-1.982
					c0.926-1.321,1.604-3.18,2.033-5.574L201.811,352.558z"/>
				<path fill="#FFFFFF" d="M213.941,359.809c0.135,1.084,0.496,1.893,1.084,2.423c0.586,0.531,1.445,0.796,2.574,0.796
					c0.904,0,1.701-0.096,2.389-0.287c0.689-0.192,1.418-0.446,2.188-0.763c0.359,0.452,0.604,0.999,0.729,1.644
					c0.123,0.644,0.186,1.327,0.186,2.05c-0.385,0.181-0.83,0.345-1.338,0.491c-0.51,0.147-1.033,0.271-1.576,0.373
					s-1.084,0.181-1.627,0.237c-0.541,0.056-1.027,0.084-1.457,0.084c-1.377,0-2.559-0.169-3.541-0.508s-1.795-0.818-2.439-1.44
					c-0.645-0.621-1.119-1.377-1.424-2.271c-0.305-0.892-0.457-1.88-0.457-2.965c0-1.377,0.238-2.732,0.711-4.065
					c0.475-1.333,1.146-2.524,2.018-3.575c0.869-1.051,1.932-1.897,3.186-2.542c1.252-0.644,2.658-0.965,4.219-0.965
					c0.744,0,1.439,0.09,2.084,0.271c0.643,0.182,1.201,0.458,1.676,0.83c0.475,0.373,0.848,0.83,1.119,1.373
					c0.271,0.542,0.406,1.175,0.406,1.897c0,1.017-0.236,1.897-0.711,2.643s-1.107,1.378-1.898,1.897
					c-0.791,0.521-1.689,0.943-2.693,1.271c-1.006,0.328-2.051,0.571-3.135,0.729L213.941,359.809z M215.873,356.353
					c0.857-0.136,1.559-0.311,2.1-0.525c0.543-0.215,0.971-0.451,1.287-0.712c0.316-0.259,0.531-0.524,0.645-0.796
					s0.17-0.542,0.17-0.813c0-0.429-0.143-0.779-0.424-1.05c-0.283-0.271-0.66-0.407-1.135-0.407c-0.588,0-1.125,0.131-1.609,0.39
					c-0.486,0.26-0.91,0.604-1.271,1.034c-0.361,0.429-0.672,0.92-0.932,1.474s-0.457,1.113-0.594,1.677L215.873,356.353z"/>
				<path fill="#FFFFFF" d="M230.916,358.725c-0.361-0.136-0.723-0.311-1.084-0.525s-0.693-0.485-1-0.813
					c-0.305-0.327-0.553-0.729-0.744-1.203c-0.193-0.474-0.289-1.038-0.289-1.694c0-0.948,0.188-1.79,0.561-2.524
					c0.371-0.733,0.891-1.354,1.559-1.863c0.666-0.508,1.445-0.897,2.338-1.169c0.891-0.271,1.857-0.406,2.896-0.406
					c0.361,0,0.756,0.017,1.186,0.051c0.43,0.033,0.865,0.084,1.305,0.152c0.441,0.067,0.869,0.164,1.287,0.288
					s0.797,0.276,1.137,0.457c-0.047,0.588-0.152,1.169-0.322,1.745s-0.447,1.158-0.83,1.745c-0.475-0.248-1.051-0.451-1.729-0.61
					c-0.678-0.157-1.322-0.236-1.932-0.236c-0.248,0-0.525,0.022-0.83,0.067c-0.305,0.046-0.594,0.124-0.863,0.237
					c-0.271,0.113-0.498,0.282-0.678,0.508c-0.182,0.227-0.271,0.509-0.271,0.848c0,0.678,0.428,1.209,1.287,1.593l1.322,0.576
					c0.428,0.181,0.846,0.39,1.254,0.626c0.406,0.237,0.768,0.525,1.084,0.864s0.57,0.734,0.762,1.187s0.289,0.982,0.289,1.593
					c0,1.129-0.227,2.106-0.678,2.931c-0.453,0.825-1.062,1.514-1.83,2.067c-0.77,0.554-1.678,0.965-2.729,1.236
					s-2.162,0.406-3.338,0.406c-0.723,0-1.523-0.073-2.404-0.22c-0.883-0.147-1.674-0.367-2.373-0.661
					c0.068-1.31,0.406-2.529,1.018-3.659c0.699,0.316,1.416,0.537,2.15,0.66c0.734,0.125,1.441,0.187,2.119,0.187
					c0.338,0,0.699-0.033,1.084-0.102c0.383-0.067,0.732-0.181,1.051-0.339c0.314-0.157,0.58-0.378,0.795-0.66
					s0.322-0.627,0.322-1.034c0-0.451-0.158-0.818-0.475-1.101s-0.756-0.537-1.32-0.763L230.916,358.725z"/>
			</g>
		</g>
	</g>
</g>
<g id="LOGO_1">
	<g id="BLACK__x26__WHITE">
		<g id="TEXT_1_">
			<g>
				<path d="M16.458,91.105c-2.885,0-5.015-0.807-6.39-2.42c-1.375-1.613-2.062-3.851-2.062-6.713c0-1.227,0.108-2.482,0.324-3.766
					s0.551-2.527,1.005-3.732c0.455-1.204,1.022-2.334,1.704-3.391c0.682-1.057,1.494-1.977,2.437-2.761
					c0.943-0.784,2.011-1.402,3.204-1.857s2.516-0.682,3.97-0.682c1.431,0,2.681,0.216,3.749,0.647
					c1.068,0.432,1.948,1.045,2.641,1.84c0.693,0.795,1.21,1.767,1.551,2.914c0.341,1.147,0.511,2.448,0.511,3.902
					c0,1.227-0.108,2.483-0.324,3.766c-0.216,1.284-0.551,2.517-1.005,3.697c-0.455,1.182-1.028,2.295-1.721,3.34
					c-0.693,1.045-1.505,1.954-2.437,2.727c-0.932,0.772-1.994,1.38-3.187,1.823C19.236,90.884,17.912,91.105,16.458,91.105z
					 M16.902,86.948c0.886,0,1.675-0.199,2.368-0.597c0.693-0.397,1.295-0.92,1.806-1.567s0.949-1.397,1.312-2.25
					c0.363-0.852,0.653-1.726,0.869-2.624c0.216-0.897,0.375-1.789,0.477-2.675c0.103-0.886,0.153-1.692,0.153-2.419
					c0-3.181-1.227-4.771-3.68-4.771c-0.886,0-1.676,0.199-2.369,0.596c-0.693,0.398-1.301,0.92-1.823,1.568
					c-0.523,0.647-0.966,1.397-1.329,2.249c-0.364,0.852-0.653,1.727-0.869,2.624c-0.216,0.898-0.375,1.79-0.477,2.675
					c-0.102,0.886-0.153,1.704-0.153,2.454C13.187,85.369,14.425,86.948,16.902,86.948z M28.25,92.604
					c-0.023,0.318-0.068,0.67-0.136,1.057c-0.068,0.386-0.153,0.767-0.256,1.142c-0.102,0.375-0.205,0.721-0.307,1.04
					c-0.102,0.318-0.199,0.579-0.29,0.784l-8.145-1.363c0.045-0.591,0.142-1.244,0.29-1.959c0.147-0.715,0.392-1.38,0.733-1.994
					L28.25,92.604z"/>
				<path d="M33.805,73.078c0.431-0.068,0.857-0.12,1.278-0.153c0.42-0.034,0.823-0.051,1.21-0.051c0.772,0,1.556,0.068,2.352,0.205
					L36.735,83.88c-0.091,0.455-0.136,0.886-0.136,1.295c0,0.682,0.147,1.159,0.443,1.432c0.295,0.272,0.716,0.409,1.261,0.409
					c0.318,0,0.675-0.079,1.073-0.238c0.397-0.159,0.801-0.494,1.21-1.005c0.409-0.511,0.806-1.227,1.193-2.147
					c0.386-0.92,0.715-2.152,0.988-3.698l1.261-6.85c0.886-0.137,1.715-0.205,2.488-0.205c0.772,0,1.556,0.068,2.352,0.205
					l-1.84,10.053c-0.25,1.431-0.438,2.698-0.562,3.8c-0.125,1.102-0.188,1.959-0.188,2.573c0,0.25,0,0.46,0,0.63
					s0.011,0.358,0.034,0.562c-0.75,0.136-1.5,0.205-2.249,0.205c-0.636,0-1.341-0.068-2.113-0.205
					c-0.045-0.182-0.091-0.397-0.136-0.647s-0.068-0.625-0.068-1.125c0-0.205,0.005-0.409,0.017-0.614
					c0.011-0.204,0.039-0.454,0.085-0.75c-0.272,0.477-0.613,0.932-1.022,1.363c-0.409,0.432-0.875,0.807-1.397,1.125
					c-0.523,0.318-1.085,0.568-1.687,0.75c-0.602,0.182-1.21,0.273-1.823,0.273c-1.363,0-2.425-0.347-3.187-1.04
					s-1.142-1.846-1.142-3.459c0-0.341,0.022-0.704,0.068-1.09c0.045-0.386,0.102-0.795,0.17-1.227L33.805,73.078z"/>
				<path d="M54.013,76.758h-2.147c0-0.068-0.006-0.136-0.017-0.204c-0.012-0.068-0.017-0.147-0.017-0.239
					c0-0.59,0.057-1.142,0.17-1.653s0.284-1.04,0.511-1.584h6.884l-3.102,17.619c-0.864,0.136-1.682,0.205-2.454,0.205
					c-0.705,0-1.465-0.068-2.283-0.205L54.013,76.758z M55.001,70.113c-0.023-0.795,0.028-1.551,0.153-2.267
					c0.125-0.715,0.324-1.471,0.597-2.266c0.409-0.09,0.84-0.153,1.295-0.188c0.454-0.034,0.863-0.051,1.227-0.051
					s0.767,0.017,1.21,0.051s0.857,0.097,1.244,0.188c0,0.795-0.068,1.557-0.205,2.283c-0.136,0.728-0.341,1.477-0.614,2.25
					c-0.409,0.068-0.834,0.114-1.278,0.136c-0.443,0.023-0.847,0.034-1.209,0.034c-0.341,0-0.739-0.011-1.193-0.034
					C55.773,70.227,55.365,70.181,55.001,70.113z"/>
				<path d="M73.166,86.504c0.25,0.409,0.454,0.898,0.613,1.465c0.159,0.568,0.238,1.318,0.238,2.25
					c-0.727,0.318-1.5,0.545-2.317,0.682s-1.715,0.205-2.692,0.205c-2.59,0-4.487-0.631-5.691-1.892
					c-1.205-1.261-1.806-2.993-1.806-5.197c0-1.34,0.222-2.686,0.665-4.038c0.443-1.352,1.096-2.567,1.959-3.646
					c0.863-1.079,1.926-1.959,3.187-2.641s2.72-1.022,4.379-1.022c0.772,0,1.522,0.057,2.25,0.17
					c0.727,0.114,1.419,0.295,2.079,0.545c-0.023,0.591-0.125,1.221-0.307,1.891c-0.182,0.67-0.466,1.312-0.852,1.926
					c-0.5-0.205-0.994-0.363-1.482-0.477c-0.489-0.114-1.028-0.17-1.619-0.17c-0.886,0-1.659,0.199-2.317,0.596
					c-0.659,0.398-1.21,0.92-1.653,1.567c-0.443,0.648-0.772,1.392-0.988,2.232c-0.216,0.841-0.324,1.716-0.324,2.624
					c0,1.25,0.318,2.17,0.954,2.76c0.636,0.591,1.442,0.886,2.42,0.886c0.5,0,0.994-0.045,1.482-0.136
					C71.831,86.993,72.438,86.8,73.166,86.504z"/>
				<path d="M80.322,72.396c0.409-2.386,0.613-4.192,0.613-5.418c0-0.25-0.006-0.46-0.017-0.631
					c-0.012-0.17-0.029-0.357-0.051-0.562c0.386-0.068,0.829-0.12,1.329-0.153c0.5-0.034,0.931-0.051,1.295-0.051
					c0.659,0,1.386,0.068,2.181,0.205c0.113,0.341,0.17,0.772,0.17,1.295c0,1-0.136,2.215-0.409,3.646l-3.51,19.97
					c-0.818,0.136-1.647,0.205-2.487,0.205c-0.773,0-1.545-0.068-2.317-0.205L80.322,72.396z M84.241,81.461l3.579-4.703
					c0.659-0.863,1.102-1.602,1.329-2.215c0.227-0.614,0.352-1.102,0.375-1.465c0.478-0.091,0.926-0.147,1.346-0.17
					c0.42-0.022,0.857-0.034,1.312-0.034c0.409,0,0.846,0.017,1.312,0.051c0.466,0.034,0.892,0.085,1.278,0.153
					c-0.068,0.591-0.279,1.192-0.63,1.806c-0.353,0.613-0.858,1.386-1.517,2.317l-3.442,4.294l3.306,9.201
					c-0.478,0.045-0.915,0.085-1.312,0.119s-0.801,0.051-1.209,0.051c-0.432,0-0.841-0.012-1.227-0.034
					c-0.387-0.023-0.807-0.068-1.261-0.136L84.241,81.461z"/>
				<path d="M97.293,80.643c0.25-1.431,0.437-2.698,0.562-3.8c0.125-1.102,0.188-1.959,0.188-2.573c0-0.25,0-0.46,0-0.63
					s-0.012-0.358-0.034-0.562c0.75-0.137,1.5-0.205,2.25-0.205c0.341,0,0.682,0.017,1.022,0.051
					c0.341,0.034,0.704,0.085,1.09,0.153c0.045,0.182,0.09,0.397,0.136,0.647c0.045,0.25,0.068,0.625,0.068,1.125
					c0,0.205-0.006,0.409-0.017,0.613c-0.012,0.205-0.04,0.455-0.085,0.75c0.273-0.477,0.613-0.932,1.022-1.363
					c0.409-0.431,0.874-0.806,1.397-1.125c0.522-0.318,1.084-0.568,1.688-0.75c0.602-0.182,1.209-0.272,1.822-0.272
					c1.363,0,2.426,0.347,3.187,1.04s1.142,1.846,1.142,3.459c0,0.341-0.023,0.704-0.068,1.09c-0.045,0.387-0.102,0.795-0.17,1.227
					l-1.977,11.178c-0.863,0.136-1.693,0.205-2.488,0.205s-1.579-0.068-2.352-0.205l1.909-10.803
					c0.091-0.454,0.136-0.886,0.136-1.295c0-0.682-0.147-1.159-0.443-1.431c-0.295-0.272-0.715-0.409-1.26-0.409
					c-0.318,0-0.677,0.08-1.074,0.239c-0.397,0.159-0.801,0.494-1.209,1.005c-0.41,0.511-0.807,1.232-1.193,2.164
					c-0.387,0.932-0.716,2.159-0.988,3.68l-1.261,6.85c-0.886,0.136-1.716,0.205-2.488,0.205c-0.796,0-1.58-0.068-2.352-0.205
					L97.293,80.643z"/>
				<path d="M122.375,91.105c-2.34,0-4.061-0.614-5.164-1.84c-1.102-1.227-1.652-2.908-1.652-5.044c0-1.363,0.205-2.731,0.613-4.106
					c0.41-1.375,1.023-2.612,1.842-3.714c0.816-1.102,1.844-1.999,3.084-2.692c1.236-0.693,2.686-1.04,4.344-1.04
					c2.363,0,4.096,0.625,5.197,1.875s1.652,2.942,1.652,5.078c0,1.409-0.199,2.794-0.596,4.158
					c-0.398,1.363-1.006,2.59-1.822,3.681c-0.818,1.09-1.854,1.971-3.102,2.641C125.521,90.77,124.057,91.105,122.375,91.105z
					 M122.818,87.425c0.863,0,1.59-0.273,2.18-0.818c0.592-0.545,1.074-1.221,1.449-2.028c0.375-0.806,0.643-1.658,0.801-2.556
					c0.158-0.897,0.238-1.709,0.238-2.437c0-2.09-0.852-3.135-2.555-3.135c-0.865,0-1.58,0.285-2.148,0.852
					c-0.568,0.568-1.033,1.261-1.396,2.079c-0.363,0.818-0.619,1.682-0.768,2.59c-0.146,0.909-0.221,1.715-0.221,2.419
					C120.398,86.414,121.205,87.425,122.818,87.425z"/>
				<path d="M150.252,83.062c-0.252,1.432-0.434,2.698-0.547,3.8c-0.113,1.103-0.17,1.959-0.17,2.573c0,0.25,0,0.46,0,0.63
					s0.012,0.358,0.035,0.562c-0.75,0.137-1.488,0.205-2.217,0.205c-0.635,0-1.34-0.068-2.111-0.205
					c-0.047-0.181-0.092-0.397-0.137-0.647c-0.047-0.25-0.068-0.625-0.068-1.125c0-0.205,0.006-0.443,0.018-0.716
					c0.01-0.272,0.039-0.556,0.084-0.852c-0.318,0.523-0.697,1.017-1.141,1.482c-0.443,0.466-0.932,0.869-1.467,1.209
					c-0.533,0.341-1.107,0.614-1.721,0.818c-0.613,0.205-1.26,0.307-1.941,0.307c-1.5,0-2.625-0.478-3.375-1.432
					s-1.123-2.215-1.123-3.783c0-1.704,0.254-3.351,0.766-4.941c0.512-1.59,1.271-2.999,2.283-4.226
					c1.012-1.227,2.266-2.209,3.766-2.948c1.5-0.738,3.25-1.107,5.248-1.107c0.16,0,0.312,0.006,0.461,0.017
					c0.146,0.012,0.277,0.017,0.391,0.017c0.25-1.34,0.428-2.476,0.529-3.408s0.152-1.704,0.152-2.317
					c0-0.25-0.006-0.46-0.016-0.631c-0.012-0.17-0.029-0.357-0.051-0.562c0.385-0.068,0.828-0.12,1.328-0.153
					c0.5-0.034,0.932-0.051,1.295-0.051c0.658,0,1.385,0.068,2.182,0.205c0.113,0.341,0.17,0.772,0.17,1.295
					c0,1-0.137,2.215-0.408,3.646L150.252,83.062z M146.605,76.724c-0.205-0.045-0.404-0.074-0.598-0.085
					c-0.193-0.011-0.381-0.017-0.562-0.017c-1.09,0-2.016,0.273-2.777,0.818c-0.762,0.545-1.391,1.227-1.891,2.045
					s-0.863,1.699-1.092,2.641c-0.227,0.943-0.34,1.801-0.34,2.573c0,1.682,0.557,2.522,1.67,2.522c1.09,0,2.102-0.665,3.033-1.994
					s1.613-3.198,2.045-5.606L146.605,76.724z"/>
				<path d="M158.805,84.017c0.137,1.091,0.5,1.903,1.09,2.437c0.592,0.534,1.455,0.801,2.592,0.801c0.908,0,1.709-0.097,2.402-0.29
					c0.691-0.193,1.424-0.449,2.197-0.767c0.363,0.455,0.607,1.005,0.732,1.653s0.188,1.335,0.188,2.062
					c-0.387,0.182-0.834,0.347-1.346,0.494c-0.512,0.148-1.039,0.272-1.584,0.375c-0.547,0.103-1.092,0.182-1.637,0.239
					c-0.545,0.057-1.033,0.085-1.465,0.085c-1.387,0-2.574-0.17-3.562-0.511s-1.805-0.823-2.453-1.449
					c-0.646-0.625-1.125-1.385-1.432-2.283c-0.307-0.897-0.459-1.891-0.459-2.982c0-1.385,0.238-2.749,0.715-4.089
					c0.477-1.34,1.152-2.539,2.027-3.595c0.875-1.057,1.943-1.909,3.205-2.556c1.26-0.647,2.674-0.971,4.242-0.971
					c0.75,0,1.447,0.091,2.096,0.272c0.646,0.182,1.209,0.46,1.688,0.835c0.477,0.375,0.852,0.835,1.123,1.38
					c0.273,0.545,0.41,1.182,0.41,1.909c0,1.022-0.238,1.908-0.717,2.658c-0.477,0.75-1.113,1.386-1.908,1.909
					c-0.795,0.523-1.697,0.949-2.709,1.278c-1.012,0.33-2.061,0.574-3.152,0.733L158.805,84.017z M160.748,80.541
					c0.863-0.136,1.566-0.312,2.111-0.528c0.547-0.216,0.977-0.455,1.297-0.716c0.316-0.261,0.533-0.528,0.646-0.801
					c0.113-0.273,0.17-0.545,0.17-0.818c0-0.432-0.143-0.784-0.426-1.057c-0.283-0.272-0.664-0.409-1.141-0.409
					c-0.592,0-1.131,0.131-1.619,0.392c-0.488,0.262-0.916,0.608-1.277,1.04c-0.365,0.432-0.678,0.926-0.938,1.482
					c-0.262,0.557-0.461,1.119-0.598,1.687L160.748,80.541z"/>
				<path d="M175.879,82.926c-0.365-0.136-0.729-0.312-1.092-0.528c-0.363-0.215-0.699-0.488-1.006-0.818
					c-0.307-0.329-0.557-0.732-0.748-1.21c-0.193-0.477-0.291-1.044-0.291-1.704c0-0.954,0.188-1.8,0.562-2.539
					c0.375-0.738,0.898-1.363,1.568-1.874c0.67-0.511,1.453-0.903,2.352-1.176c0.896-0.273,1.867-0.409,2.914-0.409
					c0.363,0,0.76,0.017,1.191,0.051s0.869,0.085,1.312,0.153c0.443,0.068,0.875,0.165,1.295,0.29
					c0.42,0.125,0.801,0.278,1.143,0.46c-0.047,0.591-0.154,1.176-0.324,1.755c-0.17,0.579-0.449,1.165-0.836,1.755
					c-0.477-0.25-1.057-0.454-1.738-0.613c-0.68-0.159-1.328-0.239-1.941-0.239c-0.25,0-0.529,0.023-0.836,0.068
					c-0.307,0.046-0.596,0.125-0.867,0.238c-0.273,0.114-0.5,0.285-0.682,0.511c-0.184,0.228-0.273,0.511-0.273,0.852
					c0,0.682,0.432,1.216,1.295,1.602l1.328,0.58c0.432,0.182,0.854,0.392,1.262,0.63c0.408,0.239,0.771,0.528,1.09,0.869
					s0.574,0.738,0.768,1.193s0.289,0.988,0.289,1.602c0,1.136-0.227,2.119-0.682,2.948c-0.453,0.83-1.068,1.522-1.84,2.079
					s-1.688,0.971-2.742,1.244c-1.057,0.272-2.176,0.409-3.357,0.409c-0.729,0-1.533-0.074-2.42-0.222
					c-0.887-0.148-1.682-0.369-2.385-0.665c0.068-1.317,0.408-2.544,1.021-3.681c0.705,0.318,1.426,0.54,2.164,0.665
					c0.738,0.125,1.449,0.188,2.131,0.188c0.34,0,0.703-0.034,1.09-0.102c0.387-0.068,0.738-0.182,1.057-0.341
					c0.318-0.159,0.584-0.38,0.801-0.665c0.215-0.284,0.324-0.63,0.324-1.04c0-0.454-0.16-0.823-0.479-1.107s-0.76-0.54-1.328-0.767
					L175.879,82.926z"/>
			</g>
		</g>
		<g id="OBJECT_1_">
			<path fill-rule="evenodd" clip-rule="evenodd" d="M29.236,22.327l50.663-2.831c0,0,7.125-11.85,23.625-11.85
				c18.076,0,25.875,14.963,25.875,14.963c25.977-7.285,38.25,30.037,12.377,30.037c-18.15,0-132.302,0-132.302,0l51.413-3.037
				c-2.063-0.638-7.164-11.212,6.037-12.863c0,0-5.679,2.297-5.551,6.975c0.104,3.793,3.786,5.479,3.786,5.479l76.632-1.164
				c0.988,0.037,11.145-0.972,9.131-10.462c-1.943-9.167-13.424-14.175-23.1-10.125c0,0-7.35-16.274-24.225-16.574
				S81.022,22.311,81.022,22.311L29.236,22.327L29.236,22.327z M75.321,24.112c0,0-10.407-0.394-8.494,8.156l-44.893,2.563
				l50.199,0.006C67.947,30.972,69.558,25.453,75.321,24.112L75.321,24.112z"/>
		</g>
	</g>
	<g id="NEGATIVE">
		<g id="OBJECT_2_">
			<path fill-rule="evenodd" clip-rule="evenodd" fill="#00AEEF" d="M29.236,190.234l50.663-2.832c0,0,7.125-11.85,23.625-11.85
				c18.076,0,25.875,14.962,25.875,14.962c25.977-7.285,38.25,30.037,12.377,30.037c-18.15,0-132.302,0-132.302,0l51.413-3.037
				c-2.063-0.637-7.164-11.211,6.037-12.861c0,0-5.679,2.297-5.551,6.975c0.104,3.793,3.786,5.479,3.786,5.479l76.632-1.164
				c0.988,0.037,11.145-0.971,9.131-10.463c-1.943-9.166-13.424-14.175-23.1-10.125c0,0-7.35-16.275-24.225-16.575
				s-22.576,11.438-22.576,11.438L29.236,190.234L29.236,190.234z M75.321,192.019c0,0-10.407-0.394-8.494,8.156l-44.893,2.562
				l50.199,0.006C67.947,198.878,69.558,193.359,75.321,192.019L75.321,192.019z"/>
		</g>
		<g id="TEXT_2_">
			<text transform="matrix(1 0 0 1 -6.4009 258.6035)"><tspan x="0" y="0" fill="#00AEEF" font-family="'Aller-BoldItalic'" font-size="34.079">Cloud </tspan><tspan x="96.17" y="0" fill="#FFFFFF" font-family="'Aller-BoldItalic'" font-size="34.079">Express</tspan></text>
		</g>
	</g>
	<g id="MAIN_LOGO">
		<g id="TEXT">
			<text transform="matrix(1 0 0 1 -6.4009 -77.21)"><tspan x="0" y="0" fill="#00AEEF" font-family="'Aller-BoldItalic'" font-size="34.079">Cloud </tspan><tspan x="96.17" y="0" font-family="'Aller-BoldItalic'" font-size="34.079">Express</tspan></text>
		</g>
		<g id="OBJECT">
			<path fill-rule="evenodd" clip-rule="evenodd" fill="#00AEEF" d="M29.236-145.58l50.663-2.831c0,0,7.125-11.85,23.625-11.85
				c18.076,0,25.875,14.963,25.875,14.963c25.977-7.285,38.25,30.037,12.377,30.037c-18.15,0-132.302,0-132.302,0l51.413-3.037
				c-2.063-0.637-7.164-11.212,6.037-12.862c0,0-5.679,2.297-5.551,6.975c0.104,3.793,3.786,5.479,3.786,5.479l76.632-1.164
				c0.988,0.037,11.145-0.972,9.131-10.463c-1.943-9.167-13.424-14.175-23.1-10.125c0,0-7.35-16.274-24.225-16.574
				c-16.875-0.3-22.576,11.438-22.576,11.438L29.236-145.58L29.236-145.58z M75.321-143.795c0,0-10.407-0.394-8.494,8.156
				l-44.893,2.563l50.199,0.006C67.947-136.935,69.558-142.455,75.321-143.795L75.321-143.795z"/>
		</g>
	</g>
</g>
</svg>
