<?xml version="1.0" encoding="utf-8"?>
<!-- Generator: Adobe Illustrator 16.0.0, SVG Export Plug-In . SVG Version: 6.00 Build 0)  -->
<!DOCTYPE svg PUBLIC "-//W3C//DTD SVG 1.1//EN" "http://www.w3.org/Graphics/SVG/1.1/DTD/svg11.dtd">
<svg version="1.1" xmlns="http://www.w3.org/2000/svg" xmlns:xlink="http://www.w3.org/1999/xlink" x="0px" y="0px" width="325px"
	 height="50px" viewBox="0 0 325 50" enable-background="new 0 0 325 50" xml:space="preserve">
<g id="OTHERS">
	<polygon fill-rule="evenodd" clip-rule="evenodd" stroke="#000000" stroke-width="0.5" stroke-miterlimit="2.6131" points="
		34.65,-180.047 329.25,-180.047 329.25,-27.048 34.65,-27.048 34.65,-180.047 	"/>
	<polygon fill-rule="evenodd" clip-rule="evenodd" fill="#FFFFFF" points="230.801,-45.046 329.25,-45.046 329.25,-27.048 
		216.402,-27.048 230.801,-45.046 	"/>
	<text transform="matrix(1 0 0 1 242 -32.7598)" font-family="'ArialMT'" font-size="11.6729">Negative Logo</text>
	<polygon fill="none" stroke="#000000" stroke-width="0.5" stroke-miterlimit="2.6131" points="-18.75,-7.864 382.65,-7.864 
		382.65,73.966 -18.75,73.966 -18.75,-7.864 	"/>
	<polygon fill-rule="evenodd" clip-rule="evenodd" points="235.301,55.968 382.65,55.968 382.65,73.966 220.902,73.966 
		235.301,55.968 	"/>
	<text transform="matrix(1 0 0 1 255.2012 68.2529)" fill="#FFFFFF" font-family="'ArialMT'" font-size="11.6729">Alternate Compositio</text>
	<text transform="matrix(1 0 0 1 363.5195 68.2529)" fill="#FFFFFF" font-family="'ArialMT'" font-size="11.6729">n</text>
	<polygon fill-rule="evenodd" clip-rule="evenodd" stroke="#000000" stroke-width="0.5" stroke-miterlimit="2.6131" points="
		-18.75,177.026 382.65,177.026 382.65,258.856 -18.75,258.856 -18.75,177.026 	"/>
	<polygon fill-rule="evenodd" clip-rule="evenodd" fill="#FFFFFF" points="235.301,240.856 382.65,240.856 382.65,258.856 
		220.902,258.856 235.301,240.856 	"/>
	<text transform="matrix(1 0 0 1 270.6504 253.1436)" font-family="'ArialMT'" font-size="11.6729">Negative Logo</text>
	<polygon fill="none" stroke="#000000" stroke-width="0.5" stroke-miterlimit="2.6131" points="-18.75,84.581 382.65,84.581 
		382.65,166.411 -18.75,166.411 -18.75,84.581 	"/>
	<polygon fill-rule="evenodd" clip-rule="evenodd" points="235.301,148.411 382.65,148.411 382.65,166.411 220.902,166.411 
		235.301,148.411 	"/>
	<text transform="matrix(1 0 0 1 270.2812 161.668)" fill="#FFFFFF" font-family="'ArialMT'" font-size="11.6729">Black and White</text>
	<polygon fill="none" stroke="#000000" stroke-width="0.5" stroke-miterlimit="2.6131" points="34.65,-347.954 329.25,-347.954 
		329.25,-194.954 34.65,-194.954 34.65,-347.954 	"/>
	<polygon fill-rule="evenodd" clip-rule="evenodd" points="231.027,-212.954 329.25,-212.954 329.25,-194.954 216.627,-194.954 
		231.027,-212.954 	"/>
	<text transform="matrix(1 0 0 1 243.3398 -200.6665)" fill="#FFFFFF" font-family="'ArialMT'" font-size="11.6729">Black &amp; White</text>
	<polygon fill="none" stroke="#000000" stroke-width="0.5" stroke-miterlimit="2.6131" points="34.65,-515.861 329.25,-515.861 
		329.25,-362.861 34.65,-362.861 34.65,-515.861 	"/>
	<polygon fill-rule="evenodd" clip-rule="evenodd" points="244.002,-380.86 329.25,-380.86 329.25,-362.861 229.602,-362.861 
		244.002,-380.86 	"/>
	<text transform="matrix(1 0 0 1 260.0293 -368.5737)" fill="#FFFFFF" font-family="'ArialMT'" font-size="11.6729">Main Logo</text>
</g>
<g id="LOGO_2">
	<g id="NEGATIVE_1_">
		<g id="OBJECT_4_">
			<path fill-rule="evenodd" clip-rule="evenodd" fill="#00AEEF" d="M25.706,202.413l43.316-2.42c0,0,6.092-10.131,20.199-10.131
				c15.454,0,22.123,12.793,22.123,12.793c22.209-6.23,32.703,25.68,10.581,25.68c-15.518,0-113.115,0-113.115,0l43.958-2.596
				c-1.764-0.545-6.125-9.586,5.161-10.998c0,0-4.854,1.965-4.746,5.965c0.089,3.242,3.237,4.684,3.237,4.684l65.52-0.996
				c0.845,0.033,9.528-0.83,7.807-8.945c-1.662-7.836-11.478-12.119-19.75-8.656c0,0-6.284-13.914-20.712-14.17
				c-14.429-0.258-19.303,9.777-19.303,9.777L25.706,202.413L25.706,202.413z M65.108,203.94c0,0-8.898-0.338-7.262,6.973
				l-38.383,2.191l42.919,0.006C58.804,209.806,60.181,205.087,65.108,203.94L65.108,203.94z"/>
		</g>
		<g id="TEXT_4_">
			<text transform="matrix(1 0 0 1 141.6118 226.9668)"><tspan x="0" y="0" fill="#00AEEF" font-family="'Aller-BoldItalic'" font-size="33.8851">Cloud </tspan><tspan x="95.623" y="0" fill="#FFFFFF" font-family="'Aller-BoldItalic'" font-size="33.8851">Express</tspan></text>
		</g>
	</g>
	<g id="BLACK__x26__WHITE_1_">
		<g id="OBJECT_5_">
			<path fill-rule="evenodd" clip-rule="evenodd" d="M25.706,108.196l43.316-2.422c0,0,6.092-10.131,20.199-10.131
				c15.454,0,22.123,12.793,22.123,12.793c22.209-6.229,32.703,25.682,10.581,25.682c-15.518,0-113.115,0-113.115,0l43.958-2.598
				c-1.764-0.545-6.125-9.586,5.161-10.996c0,0-4.854,1.963-4.746,5.963c0.089,3.244,3.237,4.684,3.237,4.684l65.52-0.994
				c0.845,0.031,9.528-0.832,7.807-8.945c-1.662-7.838-11.478-12.119-19.75-8.658c0,0-6.284-13.914-20.712-14.17
				c-14.429-0.256-19.303,9.779-19.303,9.779L25.706,108.196L25.706,108.196z M65.108,109.722c0,0-8.898-0.336-7.262,6.973
				l-38.383,2.191l42.919,0.006C58.804,115.587,60.181,110.868,65.108,109.722L65.108,109.722z"/>
		</g>
		<g id="TEXT_5_">
			<text transform="matrix(1 0 0 1 141.6118 132.749)" font-family="'Aller-BoldItalic'" font-size="33.8851">Cloud Express</text>
		</g>
	</g>
	<g id="ALTERNATE_COMPOSITION">
		<g id="OBJECT_3_">
			<path fill-rule="evenodd" clip-rule="evenodd" fill="#00AEEF" d="M25.706,16.897l43.316-2.422c0,0,6.092-10.131,20.199-10.131
				c15.454,0,22.123,12.793,22.123,12.793c22.209-6.229,32.703,25.682,10.581,25.682c-15.518,0-113.115,0-113.115,0l43.958-2.598
				c-1.764-0.545-6.125-9.586,5.161-10.996c0,0-4.854,1.963-4.746,5.963c0.089,3.244,3.237,4.684,3.237,4.684l65.52-0.994
				c0.845,0.031,9.528-0.832,7.807-8.945c-1.662-7.838-11.478-12.119-19.75-8.658c0,0-6.284-13.914-20.712-14.17
				c-14.429-0.256-19.303,9.779-19.303,9.779L25.706,16.897L25.706,16.897z M65.108,18.423c0,0-8.898-0.336-7.262,6.973
				l-38.383,2.191l42.919,0.006C58.804,24.288,60.181,19.569,65.108,18.423L65.108,18.423z"/>
		</g>
		<g id="TEXT_3_">
			<text transform="matrix(1 0 0 1 141.6118 41.4502)" fill="#00AEEF" font-family="'Aller-BoldItalic'" font-size="33.8851">Quicknodes</text>
		</g>
	</g>
</g>
<g id="LOGO_1">
	<g id="BLACK__x26__WHITE">
		<g id="TEXT_1_">
			<text transform="matrix(1 0 0 1 74.5991 -234.3037)" font-family="'Aller-BoldItalic'" font-size="34.079">Cloud Express</text>
		</g>
		<g id="OBJECT_1_">
			<path fill-rule="evenodd" clip-rule="evenodd" d="M110.236-302.673l50.663-2.831c0,0,7.125-11.85,23.625-11.85
				c18.076,0,25.875,14.963,25.875,14.963c25.977-7.285,38.25,30.037,12.377,30.037c-18.15,0-132.302,0-132.302,0l51.413-3.037
				c-2.063-0.638-7.164-11.212,6.037-12.863c0,0-5.679,2.297-5.551,6.975c0.104,3.793,3.786,5.479,3.786,5.479l76.632-1.164
				c0.988,0.037,11.145-0.972,9.131-10.462c-1.943-9.167-13.424-14.175-23.1-10.125c0,0-7.35-16.274-24.225-16.574
				s-22.576,11.438-22.576,11.438L110.236-302.673L110.236-302.673z M156.321-300.888c0,0-10.407-0.394-8.494,8.156l-44.893,2.563
				l50.199,0.006C148.947-294.028,150.558-299.547,156.321-300.888L156.321-300.888z"/>
		</g>
	</g>
	<g id="NEGATIVE">
		<g id="OBJECT_2_">
			<path fill-rule="evenodd" clip-rule="evenodd" fill="#00AEEF" d="M110.236-134.766l50.663-2.832c0,0,7.125-11.85,23.625-11.85
				c18.076,0,25.875,14.962,25.875,14.962c25.977-7.285,38.25,30.037,12.377,30.037c-18.15,0-132.302,0-132.302,0l51.413-3.037
				c-2.063-0.637-7.164-11.211,6.037-12.861c0,0-5.679,2.297-5.551,6.975c0.104,3.793,3.786,5.479,3.786,5.479l76.632-1.164
				c0.988,0.037,11.145-0.971,9.131-10.463c-1.943-9.166-13.424-14.175-23.1-10.125c0,0-7.35-16.275-24.225-16.575
				s-22.576,11.438-22.576,11.438L110.236-134.766L110.236-134.766z M156.321-132.981c0,0-10.407-0.394-8.494,8.156l-44.893,2.562
				l50.199,0.006C148.947-126.122,150.558-131.641,156.321-132.981L156.321-132.981z"/>
		</g>
		<g id="TEXT_2_">
			<text transform="matrix(1 0 0 1 74.5991 -66.3965)"><tspan x="0" y="0" fill="#00AEEF" font-family="'Aller-BoldItalic'" font-size="34.079">Cloud </tspan><tspan x="96.17" y="0" fill="#FFFFFF" font-family="'Aller-BoldItalic'" font-size="34.079">Express</tspan></text>
		</g>
	</g>
	<g id="MAIN_LOGO">
		<g id="TEXT">
			<text transform="matrix(1 0 0 1 74.5991 -402.21)"><tspan x="0" y="0" fill="#00AEEF" font-family="'Aller-BoldItalic'" font-size="34.079">Cloud </tspan><tspan x="96.17" y="0" font-family="'Aller-BoldItalic'" font-size="34.079">Express</tspan></text>
		</g>
		<g id="OBJECT">
			<path fill-rule="evenodd" clip-rule="evenodd" fill="#00AEEF" d="M110.236-470.58l50.663-2.831c0,0,7.125-11.85,23.625-11.85
				c18.076,0,25.875,14.963,25.875,14.963c25.977-7.285,38.25,30.037,12.377,30.037c-18.15,0-132.302,0-132.302,0l51.413-3.037
				c-2.063-0.637-7.164-11.212,6.037-12.862c0,0-5.679,2.297-5.551,6.975c0.104,3.793,3.786,5.479,3.786,5.479l76.632-1.164
				c0.988,0.037,11.145-0.972,9.131-10.463c-1.943-9.167-13.424-14.175-23.1-10.125c0,0-7.35-16.274-24.225-16.574
				c-16.875-0.3-22.576,11.438-22.576,11.438L110.236-470.58L110.236-470.58z M156.321-468.795c0,0-10.407-0.394-8.494,8.156
				l-44.893,2.563l50.199,0.006C148.947-461.935,150.558-467.455,156.321-468.795L156.321-468.795z"/>
		</g>
	</g>
</g>
</svg>
