<?xml version="1.0" encoding="utf-8"?>
<!-- Generator: Adobe Illustrator 16.0.0, SVG Export Plug-In . SVG Version: 6.00 Build 0)  -->
<!DOCTYPE svg PUBLIC "-//W3C//DTD SVG 1.1//EN" "http://www.w3.org/Graphics/SVG/1.1/DTD/svg11.dtd">
<svg version="1.1" id="Layer_1" xmlns="http://www.w3.org/2000/svg" xmlns:xlink="http://www.w3.org/1999/xlink" x="0px" y="0px"
	 width="196.051px" height="88.982px" viewBox="0 25.646 196.051 88.982" enable-background="new 0 25.646 196.051 88.982"
	 xml:space="preserve">
<g id="OTHERS">
	<polygon fill="none" stroke="#000000" stroke-width="0.5" stroke-miterlimit="2.6131" points="-44.35,-4.954 250.25,-4.954 
		250.25,148.046 -44.35,148.046 	"/>
</g>
<g id="LOGO_1">
	<g id="BLACK__x26__WHITE">
		<g id="TEXT_1_">
			<g>
				<path fill="#FFFFFF" d="M18.458,109.104c-2.885,0-5.016-0.808-6.391-2.42s-2.062-3.852-2.062-6.713
					c0-1.228,0.107-2.481,0.324-3.767c0.216-1.284,0.551-2.526,1.005-3.731c0.455-1.205,1.021-2.334,1.704-3.392
					c0.682-1.058,1.494-1.978,2.437-2.761c0.943-0.784,2.011-1.402,3.204-1.857c1.193-0.455,2.516-0.682,3.97-0.682
					c1.432,0,2.682,0.216,3.749,0.646c1.068,0.433,1.948,1.046,2.642,1.841c0.692,0.795,1.21,1.768,1.551,2.914
					c0.341,1.146,0.511,2.447,0.511,3.901c0,1.228-0.107,2.481-0.324,3.767c-0.216,1.283-0.551,2.518-1.005,3.696
					c-0.455,1.183-1.027,2.295-1.721,3.341c-0.694,1.045-1.505,1.953-2.437,2.728c-0.933,0.772-1.994,1.38-3.188,1.823
					C21.236,108.884,19.912,109.104,18.458,109.104z M18.902,104.948c0.887,0,1.676-0.199,2.368-0.598
					c0.693-0.396,1.295-0.92,1.807-1.566c0.511-0.647,0.948-1.397,1.312-2.25c0.364-0.854,0.653-1.727,0.869-2.624
					c0.216-0.896,0.375-1.789,0.477-2.677c0.104-0.885,0.153-1.69,0.153-2.418c0-3.182-1.227-4.771-3.68-4.771
					c-0.887,0-1.677,0.199-2.369,0.597c-0.693,0.397-1.301,0.92-1.823,1.567c-0.522,0.646-0.966,1.396-1.329,2.249
					c-0.364,0.854-0.652,1.729-0.869,2.624c-0.216,0.897-0.375,1.79-0.477,2.675c-0.103,0.887-0.153,1.704-0.153,2.454
					C15.187,103.369,16.425,104.948,18.902,104.948z M30.25,110.604c-0.023,0.317-0.068,0.67-0.137,1.058
					c-0.067,0.386-0.152,0.767-0.256,1.142c-0.102,0.375-0.205,0.721-0.307,1.04c-0.102,0.318-0.199,0.579-0.29,0.784l-8.145-1.363
					c0.045-0.591,0.142-1.244,0.289-1.959s0.393-1.38,0.733-1.994L30.25,110.604z"/>
				<path fill="#FFFFFF" d="M35.805,91.078c0.431-0.068,0.857-0.12,1.278-0.153c0.42-0.033,0.822-0.051,1.21-0.051
					c0.771,0,1.556,0.066,2.352,0.205l-1.909,10.803c-0.091,0.455-0.136,0.887-0.136,1.295c0,0.684,0.147,1.159,0.443,1.434
					c0.295,0.271,0.716,0.408,1.261,0.408c0.318,0,0.675-0.078,1.073-0.237c0.396-0.159,0.801-0.494,1.21-1.005
					c0.409-0.512,0.806-1.229,1.192-2.147c0.386-0.919,0.716-2.151,0.988-3.698l1.261-6.85c0.887-0.137,1.716-0.205,2.488-0.205
					s1.557,0.068,2.353,0.205l-1.841,10.053c-0.25,1.432-0.438,2.698-0.562,3.801c-0.125,1.103-0.188,1.959-0.188,2.572
					c0,0.25,0,0.46,0,0.631c0,0.17,0.012,0.357,0.034,0.562c-0.75,0.136-1.5,0.204-2.249,0.204c-0.636,0-1.341-0.067-2.112-0.204
					c-0.046-0.183-0.092-0.397-0.137-0.647s-0.067-0.625-0.067-1.125c0-0.205,0.005-0.408,0.017-0.613
					c0.011-0.205,0.039-0.455,0.085-0.75c-0.271,0.478-0.613,0.933-1.021,1.362c-0.409,0.433-0.875,0.808-1.397,1.125
					c-0.522,0.318-1.085,0.568-1.687,0.75c-0.603,0.183-1.21,0.273-1.823,0.273c-1.363,0-2.425-0.347-3.188-1.04
					c-0.762-0.693-1.142-1.846-1.142-3.459c0-0.342,0.021-0.704,0.068-1.09c0.045-0.387,0.102-0.795,0.17-1.229L35.805,91.078z"/>
				<path fill="#FFFFFF" d="M56.013,94.758h-2.146c0-0.067-0.007-0.136-0.018-0.202c-0.012-0.068-0.017-0.147-0.017-0.24
					c0-0.59,0.057-1.143,0.17-1.652c0.113-0.512,0.284-1.04,0.511-1.584h6.884l-3.102,17.619c-0.864,0.136-1.683,0.205-2.454,0.205
					c-0.705,0-1.465-0.068-2.283-0.205L56.013,94.758z M57.001,88.112c-0.023-0.795,0.027-1.551,0.152-2.268
					c0.125-0.715,0.324-1.471,0.598-2.266c0.409-0.09,0.84-0.153,1.295-0.188c0.454-0.035,0.863-0.053,1.227-0.053
					c0.364,0,0.768,0.018,1.21,0.053c0.443,0.032,0.857,0.096,1.244,0.188c0,0.795-0.067,1.557-0.205,2.283
					c-0.136,0.728-0.341,1.477-0.613,2.25c-0.409,0.068-0.834,0.113-1.278,0.136c-0.443,0.022-0.847,0.034-1.209,0.034
					c-0.341,0-0.739-0.012-1.193-0.034C57.773,88.228,57.365,88.183,57.001,88.112z"/>
				<path fill="#FFFFFF" d="M75.166,104.504c0.25,0.409,0.454,0.897,0.612,1.465c0.159,0.568,0.238,1.318,0.238,2.25
					c-0.727,0.318-1.5,0.546-2.316,0.683c-0.817,0.138-1.716,0.205-2.692,0.205c-2.59,0-4.487-0.631-5.691-1.893
					c-1.205-1.261-1.806-2.992-1.806-5.195c0-1.342,0.222-2.688,0.665-4.039c0.443-1.353,1.096-2.566,1.959-3.646
					c0.863-1.08,1.926-1.959,3.187-2.643c1.262-0.682,2.721-1.021,4.38-1.021c0.771,0,1.521,0.058,2.25,0.17
					c0.727,0.114,1.419,0.295,2.078,0.545c-0.022,0.593-0.125,1.222-0.307,1.892c-0.182,0.67-0.466,1.312-0.852,1.927
					c-0.5-0.205-0.994-0.363-1.482-0.478c-0.489-0.113-1.028-0.17-1.619-0.17c-0.886,0-1.659,0.198-2.316,0.596
					c-0.659,0.397-1.21,0.92-1.653,1.566c-0.443,0.648-0.772,1.393-0.988,2.232s-0.324,1.716-0.324,2.624
					c0,1.25,0.318,2.17,0.954,2.76c0.637,0.591,1.442,0.886,2.42,0.886c0.5,0,0.994-0.045,1.482-0.136
					C73.831,104.993,74.438,104.8,75.166,104.504z"/>
				<path fill="#FFFFFF" d="M82.322,90.396c0.409-2.387,0.613-4.191,0.613-5.418c0-0.25-0.006-0.461-0.017-0.631
					c-0.013-0.171-0.029-0.356-0.051-0.562c0.386-0.068,0.828-0.12,1.328-0.153s0.932-0.051,1.296-0.051
					c0.658,0,1.386,0.066,2.181,0.205c0.113,0.341,0.17,0.771,0.17,1.295c0,1-0.136,2.215-0.409,3.646l-3.51,19.971
					c-0.818,0.136-1.647,0.205-2.487,0.205c-0.772,0-1.545-0.068-2.316-0.205L82.322,90.396z M86.241,99.461l3.578-4.703
					c0.659-0.862,1.103-1.602,1.329-2.215c0.228-0.612,0.353-1.103,0.375-1.465c0.479-0.093,0.927-0.146,1.347-0.17
					c0.42-0.022,0.856-0.034,1.312-0.034c0.409,0,0.846,0.018,1.312,0.051c0.466,0.034,0.892,0.085,1.277,0.153
					c-0.067,0.591-0.278,1.19-0.63,1.806c-0.353,0.613-0.857,1.387-1.517,2.317l-3.442,4.294l3.306,9.201
					c-0.478,0.045-0.914,0.085-1.312,0.117c-0.397,0.035-0.801,0.053-1.209,0.053c-0.432,0-0.841-0.014-1.227-0.034
					c-0.388-0.022-0.808-0.067-1.262-0.136L86.241,99.461z"/>
				<path fill="#FFFFFF" d="M99.293,98.644c0.25-1.432,0.438-2.697,0.562-3.801c0.125-1.102,0.188-1.959,0.188-2.572
					c0-0.25,0-0.459,0-0.629c0-0.172-0.014-0.358-0.034-0.562c0.75-0.137,1.5-0.205,2.25-0.205c0.341,0,0.683,0.018,1.022,0.051
					c0.341,0.034,0.703,0.085,1.09,0.153c0.045,0.182,0.09,0.397,0.136,0.647c0.045,0.25,0.068,0.625,0.068,1.125
					c0,0.205-0.007,0.407-0.019,0.611c-0.012,0.205-0.039,0.455-0.084,0.75c0.272-0.479,0.612-0.932,1.021-1.361
					c0.408-0.433,0.874-0.808,1.396-1.125c0.521-0.318,1.084-0.568,1.688-0.75c0.602-0.184,1.209-0.272,1.82-0.272
					c1.363,0,2.428,0.347,3.188,1.04s1.142,1.846,1.142,3.459c0,0.341-0.021,0.704-0.066,1.09c-0.045,0.387-0.104,0.795-0.17,1.227
					l-1.979,11.179c-0.863,0.137-1.691,0.204-2.488,0.204c-0.795,0-1.577-0.066-2.352-0.204l1.909-10.804
					c0.091-0.453,0.136-0.886,0.136-1.295c0-0.682-0.146-1.158-0.443-1.431c-0.295-0.272-0.715-0.409-1.26-0.409
					c-0.316,0-0.677,0.08-1.074,0.239c-0.396,0.159-0.801,0.494-1.209,1.005c-0.408,0.512-0.807,1.232-1.191,2.164
					c-0.389,0.932-0.716,2.159-0.988,3.68l-1.261,6.851c-0.886,0.137-1.716,0.204-2.487,0.204c-0.797,0-1.581-0.066-2.353-0.204
					L99.293,98.644z"/>
				<path fill="#FFFFFF" d="M124.375,109.104c-2.34,0-4.062-0.613-5.164-1.84c-1.104-1.228-1.652-2.908-1.652-5.045
					c0-1.363,0.205-2.729,0.613-4.104c0.41-1.375,1.021-2.612,1.842-3.716c0.816-1.102,1.844-1.998,3.084-2.69
					c1.236-0.692,2.688-1.04,4.344-1.04c2.363,0,4.098,0.625,5.197,1.875c1.103,1.25,1.652,2.941,1.652,5.078
					c0,1.409-0.199,2.794-0.598,4.158c-0.396,1.361-1.006,2.59-1.82,3.681c-0.818,1.09-1.854,1.972-3.104,2.642
					C127.521,108.771,126.057,109.104,124.375,109.104z M124.818,105.425c0.863,0,1.591-0.271,2.181-0.816
					c0.592-0.545,1.073-1.223,1.448-2.028s0.644-1.658,0.802-2.556c0.158-0.898,0.237-1.709,0.237-2.438
					c0-2.09-0.853-3.135-2.555-3.135c-0.865,0-1.58,0.284-2.147,0.852c-0.568,0.568-1.033,1.263-1.396,2.079
					c-0.363,0.818-0.619,1.684-0.769,2.592c-0.146,0.907-0.222,1.715-0.222,2.418C122.398,104.414,123.205,105.425,124.818,105.425z
					"/>
				<path fill="#FFFFFF" d="M152.252,101.062c-0.252,1.433-0.436,2.697-0.547,3.799c-0.113,1.104-0.17,1.959-0.17,2.574
					c0,0.25,0,0.459,0,0.629s0.012,0.358,0.033,0.562c-0.75,0.137-1.486,0.205-2.217,0.205c-0.635,0-1.34-0.068-2.109-0.205
					c-0.049-0.182-0.094-0.396-0.139-0.646c-0.047-0.25-0.066-0.625-0.066-1.125c0-0.205,0.006-0.442,0.018-0.717
					c0.01-0.271,0.039-0.556,0.084-0.852c-0.318,0.523-0.697,1.017-1.141,1.482c-0.443,0.465-0.934,0.868-1.467,1.209
					c-0.533,0.34-1.107,0.612-1.723,0.816c-0.611,0.205-1.26,0.309-1.939,0.309c-1.5,0-2.625-0.479-3.375-1.434
					s-1.123-2.215-1.123-3.782c0-1.704,0.254-3.352,0.766-4.94c0.512-1.59,1.271-2.999,2.283-4.228
					c1.012-1.227,2.266-2.209,3.766-2.946c1.5-0.738,3.25-1.107,5.248-1.107c0.16,0,0.312,0.006,0.461,0.018
					c0.146,0.012,0.277,0.018,0.393,0.018c0.25-1.342,0.428-2.477,0.527-3.408c0.103-0.934,0.152-1.704,0.152-2.316
					c0-0.25-0.006-0.459-0.016-0.632c-0.014-0.17-0.029-0.356-0.053-0.562c0.387-0.068,0.828-0.12,1.328-0.153
					c0.5-0.034,0.934-0.051,1.295-0.051c0.658,0,1.387,0.067,2.184,0.205c0.111,0.341,0.17,0.771,0.17,1.295
					c0,1-0.137,2.215-0.408,3.646L152.252,101.062z M148.605,94.726c-0.205-0.045-0.403-0.074-0.599-0.086
					c-0.192-0.012-0.381-0.018-0.562-0.018c-1.09,0-2.016,0.271-2.776,0.816c-0.762,0.545-1.392,1.229-1.892,2.045
					c-0.5,0.818-0.862,1.699-1.092,2.643c-0.228,0.941-0.34,1.801-0.34,2.573c0,1.682,0.557,2.521,1.67,2.521
					c1.09,0,2.103-0.664,3.032-1.994c0.931-1.328,1.613-3.197,2.045-5.604L148.605,94.726z"/>
				<path fill="#FFFFFF" d="M160.805,102.019c0.137,1.09,0.5,1.901,1.09,2.437c0.592,0.534,1.455,0.801,2.592,0.801
					c0.908,0,1.709-0.097,2.402-0.29c0.691-0.193,1.424-0.449,2.197-0.767c0.363,0.454,0.605,1.005,0.73,1.653
					c0.125,0.646,0.188,1.334,0.188,2.062c-0.387,0.183-0.834,0.347-1.346,0.494c-0.513,0.147-1.039,0.272-1.584,0.375
					c-0.548,0.103-1.093,0.182-1.638,0.239c-0.545,0.057-1.033,0.084-1.465,0.084c-1.388,0-2.574-0.17-3.562-0.512
					c-0.988-0.341-1.807-0.822-2.453-1.447s-1.125-1.387-1.434-2.283c-0.307-0.897-0.459-1.891-0.459-2.982
					c0-1.385,0.238-2.749,0.717-4.089c0.477-1.34,1.15-2.539,2.025-3.595c0.875-1.057,1.943-1.909,3.205-2.557
					c1.26-0.646,2.674-0.972,4.242-0.972c0.75,0,1.447,0.091,2.096,0.271c0.646,0.184,1.209,0.461,1.688,0.836
					c0.478,0.375,0.853,0.834,1.123,1.381c0.272,0.545,0.409,1.182,0.409,1.908c0,1.021-0.237,1.908-0.717,2.658
					c-0.478,0.75-1.112,1.385-1.908,1.908c-0.795,0.523-1.696,0.949-2.709,1.278c-1.012,0.33-2.062,0.573-3.151,0.733
					L160.805,102.019z M162.748,98.541c0.861-0.136,1.564-0.312,2.109-0.526c0.549-0.218,0.979-0.455,1.299-0.718
					c0.314-0.261,0.531-0.526,0.646-0.801s0.171-0.545,0.171-0.818c0-0.432-0.144-0.782-0.427-1.057
					c-0.282-0.271-0.664-0.409-1.142-0.409c-0.592,0-1.131,0.131-1.618,0.393c-0.488,0.263-0.916,0.607-1.277,1.041
					c-0.364,0.432-0.678,0.926-0.938,1.48c-0.262,0.559-0.461,1.119-0.598,1.688L162.748,98.541z"/>
				<path fill="#FFFFFF" d="M177.879,100.926c-0.365-0.136-0.729-0.312-1.092-0.526s-0.699-0.488-1.006-0.818
					c-0.309-0.329-0.559-0.732-0.748-1.21c-0.193-0.478-0.291-1.044-0.291-1.704c0-0.954,0.188-1.8,0.562-2.539
					c0.375-0.738,0.897-1.363,1.567-1.874s1.453-0.903,2.353-1.176c0.896-0.272,1.866-0.409,2.914-0.409
					c0.362,0,0.76,0.018,1.19,0.051c0.431,0.034,0.869,0.086,1.312,0.153c0.443,0.067,0.875,0.165,1.295,0.29
					s0.801,0.277,1.145,0.46c-0.047,0.591-0.154,1.176-0.324,1.755s-0.449,1.165-0.836,1.755c-0.479-0.25-1.059-0.454-1.738-0.612
					c-0.68-0.16-1.328-0.238-1.939-0.238c-0.25,0-0.529,0.021-0.838,0.066c-0.307,0.047-0.596,0.125-0.865,0.238
					c-0.273,0.114-0.5,0.285-0.684,0.512c-0.184,0.229-0.271,0.51-0.271,0.853c0,0.682,0.432,1.216,1.295,1.602l1.328,0.58
					c0.432,0.183,0.854,0.394,1.262,0.63c0.408,0.239,0.771,0.528,1.09,0.869c0.319,0.342,0.574,0.738,0.77,1.193
					c0.193,0.453,0.287,0.986,0.287,1.602c0,1.137-0.227,2.119-0.682,2.948c-0.453,0.83-1.068,1.521-1.84,2.079
					c-0.771,0.557-1.688,0.971-2.742,1.243c-1.057,0.271-2.176,0.409-3.355,0.409c-0.729,0-1.533-0.073-2.422-0.223
					c-0.887-0.148-1.682-0.369-2.385-0.665c0.068-1.317,0.408-2.544,1.021-3.681c0.705,0.318,1.426,0.54,2.164,0.665
					c0.736,0.125,1.447,0.188,2.131,0.188c0.34,0,0.703-0.035,1.09-0.104s0.738-0.184,1.057-0.341
					c0.318-0.159,0.584-0.382,0.803-0.665c0.215-0.284,0.322-0.631,0.322-1.04c0-0.454-0.158-0.823-0.479-1.107
					c-0.318-0.282-0.76-0.54-1.328-0.767L177.879,100.926z"/>
			</g>
		</g>
		<g id="OBJECT_1_">
			<path fill="#FFFFFF" d="M31.236,40.327l50.663-2.831c0,0,7.125-11.85,23.625-11.85c18.076,0,25.875,14.963,25.875,14.963
				c25.979-7.285,38.25,30.039,12.377,30.039c-18.148,0-132.301,0-132.301,0l51.413-3.037c-2.062-0.639-7.164-11.212,6.037-12.863
				c0,0-5.679,2.297-5.551,6.975c0.104,3.793,3.786,5.479,3.786,5.479l76.632-1.164c0.986,0.037,11.145-0.972,9.131-10.462
				c-1.943-9.167-13.424-14.175-23.102-10.125c0,0-7.35-16.274-24.225-16.574c-16.875-0.3-22.574,11.435-22.574,11.435
				L31.236,40.327L31.236,40.327z M77.321,42.112c0,0-10.406-0.394-8.493,8.156l-44.894,2.563l50.199,0.006
				C69.947,48.972,71.558,43.453,77.321,42.112L77.321,42.112z"/>
		</g>
	</g>
</g>
</svg>
