<?xml version="1.0" encoding="utf-8"?>
<!-- Generator: Adobe Illustrator 16.0.0, SVG Export Plug-In . SVG Version: 6.00 Build 0)  -->
<!DOCTYPE svg PUBLIC "-//W3C//DTD SVG 1.1//EN" "http://www.w3.org/Graphics/SVG/1.1/DTD/svg11.dtd">
<svg version="1.1" xmlns="http://www.w3.org/2000/svg" xmlns:xlink="http://www.w3.org/1999/xlink" x="0px" y="0px"
	 width="193.938px" height="126px" viewBox="0 0 193.938 126" enable-background="new 0 0 193.938 126" xml:space="preserve">
<g id="OTHERS">
	<polygon fill-rule="evenodd" clip-rule="evenodd" stroke="#000000" stroke-width="0.5" stroke-miterlimit="2.6131" points="
		-44.35,162.953 250.25,162.953 250.25,315.952 -44.35,315.952 -44.35,162.953 	"/>
	<polygon fill-rule="evenodd" clip-rule="evenodd" fill="#FFFFFF" points="151.801,297.954 250.25,297.954 250.25,315.952 
		137.402,315.952 151.801,297.954 	"/>
	<text transform="matrix(1 0 0 1 163 310.2402)" font-family="'ArialMT'" font-size="11.6729">Negative Logo</text>
	<polygon fill="none" stroke="#000000" stroke-width="0.5" stroke-miterlimit="2.6131" points="-97.75,335.136 303.65,335.136 
		303.65,416.966 -97.75,416.966 -97.75,335.136 	"/>
	<polygon fill-rule="evenodd" clip-rule="evenodd" points="156.301,398.968 303.65,398.968 303.65,416.966 141.902,416.966 
		156.301,398.968 	"/>
	<text transform="matrix(1 0 0 1 176.2012 411.2529)" fill="#FFFFFF" font-family="'ArialMT'" font-size="11.6729">Alternate Compositio</text>
	<text transform="matrix(1 0 0 1 284.5195 411.2529)" fill="#FFFFFF" font-family="'ArialMT'" font-size="11.6729">n</text>
	<polygon fill-rule="evenodd" clip-rule="evenodd" stroke="#000000" stroke-width="0.5" stroke-miterlimit="2.6131" points="
		-97.75,520.026 303.65,520.026 303.65,601.856 -97.75,601.856 -97.75,520.026 	"/>
	<polygon fill-rule="evenodd" clip-rule="evenodd" fill="#FFFFFF" points="156.301,583.856 303.65,583.856 303.65,601.856 
		141.902,601.856 156.301,583.856 	"/>
	<text transform="matrix(1 0 0 1 191.6504 596.1436)" font-family="'ArialMT'" font-size="11.6729">Negative Logo</text>
	<polygon fill="none" stroke="#000000" stroke-width="0.5" stroke-miterlimit="2.6131" points="-97.75,427.581 303.65,427.581 
		303.65,509.411 -97.75,509.411 -97.75,427.581 	"/>
	<polygon fill-rule="evenodd" clip-rule="evenodd" points="156.301,491.411 303.65,491.411 303.65,509.411 141.902,509.411 
		156.301,491.411 	"/>
	<text transform="matrix(1 0 0 1 191.2812 504.668)" fill="#FFFFFF" font-family="'ArialMT'" font-size="11.6729">Black and White</text>
	<polygon fill="none" stroke="#000000" stroke-width="0.5" stroke-miterlimit="2.6131" points="-44.35,-4.954 250.25,-4.954 
		250.25,148.046 -44.35,148.046 -44.35,-4.954 	"/>
	<polygon fill-rule="evenodd" clip-rule="evenodd" points="152.027,130.046 250.25,130.046 250.25,148.046 137.627,148.046 
		152.027,130.046 	"/>
	<text transform="matrix(1 0 0 1 164.3398 142.3335)" fill="#FFFFFF" font-family="'ArialMT'" font-size="11.6729">Black &amp; White</text>
	<polygon fill="none" stroke="#000000" stroke-width="0.5" stroke-miterlimit="2.6131" points="-44.35,-172.861 250.25,-172.861 
		250.25,-19.861 -44.35,-19.861 -44.35,-172.861 	"/>
	<polygon fill-rule="evenodd" clip-rule="evenodd" points="165.002,-37.86 250.25,-37.86 250.25,-19.861 150.602,-19.861 
		165.002,-37.86 	"/>
	<text transform="matrix(1 0 0 1 181.0293 -25.5737)" fill="#FFFFFF" font-family="'ArialMT'" font-size="11.6729">Main Logo</text>
</g>
<g id="LOGO_2">
	<g id="NEGATIVE_1_">
		<g id="OBJECT_4_">
			<path fill-rule="evenodd" clip-rule="evenodd" fill="#00AEEF" d="M-53.294,545.413l43.316-2.42c0,0,6.092-10.131,20.199-10.131
				c15.454,0,22.123,12.793,22.123,12.793c22.209-6.23,32.703,25.68,10.581,25.68c-15.518,0-113.115,0-113.115,0l43.958-2.596
				c-1.764-0.545-6.125-9.586,5.161-10.998c0,0-4.854,1.965-4.746,5.965c0.089,3.242,3.237,4.684,3.237,4.684l65.52-0.996
				c0.845,0.033,9.528-0.83,7.807-8.945c-1.662-7.836-11.478-12.119-19.75-8.656c0,0-6.284-13.914-20.712-14.17
				c-14.429-0.258-19.303,9.777-19.303,9.777L-53.294,545.413L-53.294,545.413z M-13.892,546.94c0,0-8.898-0.338-7.262,6.973
				l-38.383,2.191l42.919,0.006C-20.196,552.806-18.819,548.087-13.892,546.94L-13.892,546.94z"/>
		</g>
		<g id="TEXT_4_">
			<text transform="matrix(1 0 0 1 62.6118 569.9668)"><tspan x="0" y="0" fill="#00AEEF" font-family="'Aller-BoldItalic'" font-size="33.8851">Cloud </tspan><tspan x="95.623" y="0" fill="#FFFFFF" font-family="'Aller-BoldItalic'" font-size="33.8851">Express</tspan></text>
		</g>
	</g>
	<g id="BLACK__x26__WHITE_1_">
		<g id="OBJECT_5_">
			<path fill-rule="evenodd" clip-rule="evenodd" d="M-53.294,451.196l43.316-2.422c0,0,6.092-10.131,20.199-10.131
				c15.454,0,22.123,12.793,22.123,12.793c22.209-6.229,32.703,25.682,10.581,25.682c-15.518,0-113.115,0-113.115,0l43.958-2.598
				c-1.764-0.545-6.125-9.586,5.161-10.996c0,0-4.854,1.963-4.746,5.963c0.089,3.244,3.237,4.684,3.237,4.684l65.52-0.994
				c0.845,0.031,9.528-0.832,7.807-8.945c-1.662-7.838-11.478-12.119-19.75-8.658c0,0-6.284-13.914-20.712-14.17
				c-14.429-0.256-19.303,9.779-19.303,9.779L-53.294,451.196L-53.294,451.196z M-13.892,452.722c0,0-8.898-0.336-7.262,6.973
				l-38.383,2.191l42.919,0.006C-20.196,458.587-18.819,453.868-13.892,452.722L-13.892,452.722z"/>
		</g>
		<g id="TEXT_5_">
			<text transform="matrix(1 0 0 1 62.6118 475.749)" font-family="'Aller-BoldItalic'" font-size="33.8851">Cloud Express</text>
		</g>
	</g>
	<g id="ALTERNATE_COMPOSITION">
		<g id="OBJECT_3_">
			<path fill-rule="evenodd" clip-rule="evenodd" fill="#FFFFFF" d="M-53.294,359.897l43.316-2.422c0,0,6.092-10.131,20.199-10.131
				c15.454,0,22.123,12.793,22.123,12.793c22.209-6.229,32.703,25.682,10.581,25.682c-15.518,0-113.115,0-113.115,0l43.958-2.598
				c-1.764-0.545-6.125-9.586,5.161-10.996c0,0-4.854,1.963-4.746,5.963c0.089,3.244,3.237,4.684,3.237,4.684l65.52-0.994
				c0.845,0.031,9.528-0.832,7.807-8.945c-1.662-7.838-11.478-12.119-19.75-8.658c0,0-6.284-13.914-20.712-14.17
				c-14.429-0.256-19.303,9.779-19.303,9.779L-53.294,359.897L-53.294,359.897z M-13.892,361.423c0,0-8.898-0.336-7.262,6.973
				l-38.383,2.191l42.919,0.006C-20.196,367.288-18.819,362.569-13.892,361.423L-13.892,361.423z"/>
		</g>
		<g id="TEXT_3_">
			<text transform="matrix(1 0 0 1 62.6118 384.4502)" fill="#FFFFFF" font-family="'Aller-BoldItalic'" font-size="33.8851">Quicknodes</text>
		</g>
	</g>
</g>
<g id="LOGO_1">
	<g id="BLACK__x26__WHITE">
		<g id="TEXT_1_">
			<g>
				<path d="M18.458,109.105c-2.885,0-5.015-0.807-6.39-2.42c-1.375-1.613-2.062-3.851-2.062-6.713c0-1.227,0.108-2.482,0.324-3.766
					s0.551-2.527,1.005-3.732c0.455-1.204,1.022-2.334,1.704-3.391c0.682-1.057,1.494-1.977,2.437-2.761
					c0.943-0.784,2.011-1.402,3.204-1.857s2.516-0.682,3.97-0.682c1.431,0,2.681,0.216,3.749,0.647
					c1.068,0.432,1.948,1.045,2.641,1.84c0.693,0.795,1.21,1.767,1.551,2.914c0.341,1.147,0.511,2.448,0.511,3.902
					c0,1.227-0.108,2.483-0.324,3.766c-0.216,1.284-0.551,2.517-1.005,3.697c-0.455,1.182-1.028,2.295-1.721,3.34
					c-0.693,1.045-1.505,1.954-2.437,2.727c-0.932,0.772-1.994,1.38-3.187,1.823C21.236,108.884,19.912,109.105,18.458,109.105z
					 M18.902,104.948c0.886,0,1.675-0.199,2.368-0.597c0.693-0.397,1.295-0.92,1.806-1.567s0.949-1.397,1.312-2.25
					c0.363-0.852,0.653-1.726,0.869-2.624c0.216-0.897,0.375-1.789,0.477-2.675c0.103-0.886,0.153-1.692,0.153-2.419
					c0-3.181-1.227-4.771-3.68-4.771c-0.886,0-1.676,0.199-2.369,0.596c-0.693,0.398-1.301,0.92-1.823,1.568
					c-0.523,0.647-0.966,1.397-1.329,2.249c-0.364,0.852-0.653,1.727-0.869,2.624c-0.216,0.898-0.375,1.79-0.477,2.675
					c-0.102,0.886-0.153,1.704-0.153,2.454C15.187,103.369,16.425,104.948,18.902,104.948z M30.25,110.604
					c-0.023,0.318-0.068,0.67-0.136,1.057c-0.068,0.386-0.153,0.767-0.256,1.142c-0.102,0.375-0.205,0.721-0.307,1.04
					c-0.102,0.318-0.199,0.579-0.29,0.784l-8.145-1.363c0.045-0.591,0.142-1.244,0.29-1.959c0.147-0.715,0.392-1.38,0.733-1.994
					L30.25,110.604z"/>
				<path d="M35.805,91.078c0.431-0.068,0.857-0.12,1.278-0.153c0.42-0.034,0.823-0.051,1.21-0.051c0.772,0,1.556,0.068,2.352,0.205
					l-1.909,10.803c-0.091,0.455-0.136,0.886-0.136,1.295c0,0.682,0.147,1.159,0.443,1.432c0.295,0.272,0.716,0.409,1.261,0.409
					c0.318,0,0.675-0.079,1.073-0.238c0.397-0.159,0.801-0.494,1.21-1.005c0.409-0.511,0.806-1.227,1.193-2.147
					c0.386-0.92,0.715-2.152,0.988-3.698l1.261-6.85c0.886-0.137,1.715-0.205,2.488-0.205c0.772,0,1.556,0.068,2.352,0.205
					l-1.84,10.053c-0.25,1.431-0.438,2.698-0.562,3.8c-0.125,1.102-0.188,1.959-0.188,2.573c0,0.25,0,0.46,0,0.63
					s0.011,0.358,0.034,0.562c-0.75,0.136-1.5,0.205-2.249,0.205c-0.636,0-1.341-0.068-2.113-0.205
					c-0.045-0.182-0.091-0.397-0.136-0.647s-0.068-0.625-0.068-1.125c0-0.205,0.005-0.409,0.017-0.614
					c0.011-0.204,0.039-0.454,0.085-0.75c-0.272,0.477-0.613,0.932-1.022,1.363c-0.409,0.432-0.875,0.807-1.397,1.125
					c-0.523,0.318-1.085,0.568-1.687,0.75c-0.602,0.182-1.21,0.273-1.823,0.273c-1.363,0-2.425-0.347-3.187-1.04
					s-1.142-1.846-1.142-3.459c0-0.341,0.022-0.704,0.068-1.09c0.045-0.386,0.102-0.795,0.17-1.227L35.805,91.078z"/>
				<path d="M56.013,94.758h-2.147c0-0.068-0.006-0.136-0.017-0.204c-0.012-0.068-0.017-0.147-0.017-0.239
					c0-0.59,0.057-1.142,0.17-1.653s0.284-1.04,0.511-1.584h6.884l-3.102,17.619c-0.864,0.136-1.682,0.205-2.454,0.205
					c-0.705,0-1.465-0.068-2.283-0.205L56.013,94.758z M57.001,88.113c-0.023-0.795,0.028-1.551,0.153-2.267
					c0.125-0.715,0.324-1.471,0.597-2.266c0.409-0.09,0.84-0.153,1.295-0.188c0.454-0.034,0.863-0.051,1.227-0.051
					s0.767,0.017,1.21,0.051s0.857,0.097,1.244,0.188c0,0.795-0.068,1.557-0.205,2.283c-0.136,0.728-0.341,1.477-0.614,2.25
					c-0.409,0.068-0.834,0.114-1.278,0.136c-0.443,0.023-0.847,0.034-1.209,0.034c-0.341,0-0.739-0.011-1.193-0.034
					C57.773,88.227,57.365,88.181,57.001,88.113z"/>
				<path d="M75.166,104.504c0.25,0.409,0.454,0.898,0.613,1.465c0.159,0.568,0.238,1.318,0.238,2.25
					c-0.727,0.318-1.5,0.545-2.317,0.682s-1.715,0.205-2.692,0.205c-2.59,0-4.487-0.631-5.691-1.892
					c-1.205-1.261-1.806-2.993-1.806-5.197c0-1.34,0.222-2.686,0.665-4.038c0.443-1.352,1.096-2.567,1.959-3.646
					c0.863-1.079,1.926-1.959,3.187-2.641s2.72-1.022,4.379-1.022c0.772,0,1.522,0.057,2.25,0.17
					c0.727,0.114,1.419,0.295,2.079,0.545c-0.023,0.591-0.125,1.221-0.307,1.891c-0.182,0.67-0.466,1.312-0.852,1.926
					c-0.5-0.205-0.994-0.363-1.482-0.477c-0.489-0.114-1.028-0.17-1.619-0.17c-0.886,0-1.659,0.199-2.317,0.596
					c-0.659,0.398-1.21,0.92-1.653,1.567c-0.443,0.648-0.772,1.392-0.988,2.232c-0.216,0.841-0.324,1.716-0.324,2.624
					c0,1.25,0.318,2.17,0.954,2.76c0.636,0.591,1.442,0.886,2.42,0.886c0.5,0,0.994-0.045,1.482-0.136
					C73.831,104.993,74.438,104.8,75.166,104.504z"/>
				<path d="M82.322,90.396c0.409-2.386,0.613-4.192,0.613-5.418c0-0.25-0.006-0.46-0.017-0.631
					c-0.012-0.17-0.029-0.357-0.051-0.562c0.386-0.068,0.829-0.12,1.329-0.153c0.5-0.034,0.931-0.051,1.295-0.051
					c0.659,0,1.386,0.068,2.181,0.205c0.113,0.341,0.17,0.772,0.17,1.295c0,1-0.136,2.215-0.409,3.646l-3.51,19.97
					c-0.818,0.136-1.647,0.205-2.487,0.205c-0.773,0-1.545-0.068-2.317-0.205L82.322,90.396z M86.241,99.461l3.579-4.703
					c0.659-0.863,1.102-1.602,1.329-2.215c0.227-0.614,0.352-1.102,0.375-1.465c0.478-0.091,0.926-0.147,1.346-0.17
					c0.42-0.022,0.857-0.034,1.312-0.034c0.409,0,0.846,0.017,1.312,0.051c0.466,0.034,0.892,0.085,1.278,0.153
					c-0.068,0.591-0.279,1.192-0.63,1.806c-0.353,0.613-0.858,1.386-1.517,2.317l-3.442,4.294l3.306,9.201
					c-0.478,0.045-0.915,0.085-1.312,0.119s-0.801,0.051-1.209,0.051c-0.432,0-0.841-0.012-1.227-0.034
					c-0.387-0.023-0.807-0.068-1.261-0.136L86.241,99.461z"/>
				<path d="M99.293,98.643c0.25-1.431,0.437-2.698,0.562-3.8c0.125-1.102,0.188-1.959,0.188-2.573c0-0.25,0-0.46,0-0.63
					s-0.012-0.358-0.034-0.562c0.75-0.137,1.5-0.205,2.25-0.205c0.341,0,0.682,0.017,1.022,0.051
					c0.341,0.034,0.704,0.085,1.09,0.153c0.045,0.182,0.09,0.397,0.136,0.647c0.045,0.25,0.068,0.625,0.068,1.125
					c0,0.205-0.006,0.409-0.017,0.613c-0.012,0.205-0.04,0.455-0.085,0.75c0.273-0.477,0.613-0.932,1.022-1.363
					c0.409-0.431,0.874-0.806,1.397-1.125c0.522-0.318,1.084-0.568,1.688-0.75c0.602-0.182,1.209-0.272,1.822-0.272
					c1.363,0,2.426,0.347,3.187,1.04s1.142,1.846,1.142,3.459c0,0.341-0.023,0.704-0.068,1.09c-0.045,0.387-0.102,0.795-0.17,1.227
					l-1.977,11.178c-0.863,0.136-1.693,0.205-2.488,0.205s-1.579-0.068-2.352-0.205l1.909-10.803
					c0.091-0.454,0.136-0.886,0.136-1.295c0-0.682-0.147-1.159-0.443-1.431c-0.295-0.272-0.715-0.409-1.26-0.409
					c-0.318,0-0.677,0.08-1.074,0.239c-0.397,0.159-0.801,0.494-1.209,1.005c-0.41,0.511-0.807,1.232-1.193,2.164
					c-0.387,0.932-0.716,2.159-0.988,3.68l-1.261,6.85c-0.886,0.136-1.716,0.205-2.488,0.205c-0.796,0-1.58-0.068-2.352-0.205
					L99.293,98.643z"/>
				<path d="M124.375,109.105c-2.34,0-4.061-0.614-5.164-1.84c-1.102-1.227-1.652-2.908-1.652-5.044
					c0-1.363,0.205-2.731,0.613-4.106c0.41-1.375,1.023-2.612,1.842-3.714c0.816-1.102,1.844-1.999,3.084-2.692
					c1.236-0.693,2.686-1.04,4.344-1.04c2.363,0,4.096,0.625,5.197,1.875s1.652,2.942,1.652,5.078c0,1.409-0.199,2.794-0.596,4.158
					c-0.398,1.363-1.006,2.59-1.822,3.681c-0.818,1.09-1.854,1.971-3.102,2.641C127.521,108.77,126.057,109.105,124.375,109.105z
					 M124.818,105.425c0.863,0,1.59-0.273,2.18-0.818c0.592-0.545,1.074-1.221,1.449-2.028c0.375-0.806,0.643-1.658,0.801-2.556
					c0.158-0.897,0.238-1.709,0.238-2.437c0-2.09-0.852-3.135-2.555-3.135c-0.865,0-1.58,0.285-2.148,0.852
					c-0.568,0.568-1.033,1.261-1.396,2.079c-0.363,0.818-0.619,1.682-0.768,2.59c-0.146,0.909-0.221,1.715-0.221,2.419
					C122.398,104.414,123.205,105.425,124.818,105.425z"/>
				<path d="M152.252,101.062c-0.252,1.432-0.434,2.698-0.547,3.8c-0.113,1.103-0.17,1.959-0.17,2.573c0,0.25,0,0.46,0,0.63
					s0.012,0.358,0.035,0.562c-0.75,0.137-1.488,0.205-2.217,0.205c-0.635,0-1.34-0.068-2.111-0.205
					c-0.047-0.181-0.092-0.397-0.137-0.647c-0.047-0.25-0.068-0.625-0.068-1.125c0-0.205,0.006-0.443,0.018-0.716
					c0.01-0.272,0.039-0.556,0.084-0.852c-0.318,0.523-0.697,1.017-1.141,1.482c-0.443,0.466-0.932,0.869-1.467,1.209
					c-0.533,0.341-1.107,0.614-1.721,0.818c-0.613,0.205-1.26,0.307-1.941,0.307c-1.5,0-2.625-0.478-3.375-1.432
					s-1.123-2.215-1.123-3.783c0-1.704,0.254-3.351,0.766-4.941c0.512-1.59,1.271-2.999,2.283-4.226
					c1.012-1.227,2.266-2.209,3.766-2.948c1.5-0.738,3.25-1.107,5.248-1.107c0.16,0,0.312,0.006,0.461,0.017
					c0.146,0.012,0.277,0.017,0.391,0.017c0.25-1.34,0.428-2.476,0.529-3.408s0.152-1.704,0.152-2.317
					c0-0.25-0.006-0.46-0.016-0.631c-0.012-0.17-0.029-0.357-0.051-0.562c0.385-0.068,0.828-0.12,1.328-0.153
					c0.5-0.034,0.932-0.051,1.295-0.051c0.658,0,1.385,0.068,2.182,0.205c0.113,0.341,0.17,0.772,0.17,1.295
					c0,1-0.137,2.215-0.408,3.646L152.252,101.062z M148.605,94.724c-0.205-0.045-0.404-0.074-0.598-0.085
					c-0.193-0.011-0.381-0.017-0.562-0.017c-1.09,0-2.016,0.273-2.777,0.818c-0.762,0.545-1.391,1.227-1.891,2.045
					s-0.863,1.699-1.092,2.641c-0.227,0.943-0.34,1.801-0.34,2.573c0,1.682,0.557,2.522,1.67,2.522c1.09,0,2.102-0.665,3.033-1.994
					s1.613-3.198,2.045-5.606L148.605,94.724z"/>
				<path d="M160.805,102.017c0.137,1.091,0.5,1.903,1.09,2.437c0.592,0.534,1.455,0.801,2.592,0.801
					c0.908,0,1.709-0.097,2.402-0.29c0.691-0.193,1.424-0.449,2.197-0.767c0.363,0.455,0.607,1.005,0.732,1.653
					s0.188,1.335,0.188,2.062c-0.387,0.182-0.834,0.347-1.346,0.494c-0.512,0.148-1.039,0.272-1.584,0.375
					c-0.547,0.103-1.092,0.182-1.637,0.239c-0.545,0.057-1.033,0.085-1.465,0.085c-1.387,0-2.574-0.17-3.562-0.511
					s-1.805-0.823-2.453-1.449c-0.646-0.625-1.125-1.385-1.432-2.283c-0.307-0.897-0.459-1.891-0.459-2.982
					c0-1.385,0.238-2.749,0.715-4.089c0.477-1.34,1.152-2.539,2.027-3.595c0.875-1.057,1.943-1.909,3.205-2.556
					c1.26-0.647,2.674-0.971,4.242-0.971c0.75,0,1.447,0.091,2.096,0.272c0.646,0.182,1.209,0.46,1.688,0.835
					c0.477,0.375,0.852,0.835,1.123,1.38c0.273,0.545,0.41,1.182,0.41,1.909c0,1.022-0.238,1.908-0.717,2.658
					c-0.477,0.75-1.113,1.386-1.908,1.909c-0.795,0.523-1.697,0.949-2.709,1.278c-1.012,0.33-2.061,0.574-3.152,0.733
					L160.805,102.017z M162.748,98.541c0.863-0.136,1.566-0.312,2.111-0.528c0.547-0.216,0.977-0.455,1.297-0.716
					c0.316-0.261,0.533-0.528,0.646-0.801c0.113-0.273,0.17-0.545,0.17-0.818c0-0.432-0.143-0.784-0.426-1.057
					c-0.283-0.272-0.664-0.409-1.141-0.409c-0.592,0-1.131,0.131-1.619,0.392c-0.488,0.262-0.916,0.608-1.277,1.04
					c-0.365,0.432-0.678,0.926-0.938,1.482c-0.262,0.557-0.461,1.119-0.598,1.687L162.748,98.541z"/>
				<path d="M177.879,100.926c-0.365-0.136-0.729-0.312-1.092-0.528c-0.363-0.215-0.699-0.488-1.006-0.818
					c-0.307-0.329-0.557-0.732-0.748-1.21c-0.193-0.477-0.291-1.044-0.291-1.704c0-0.954,0.188-1.8,0.562-2.539
					c0.375-0.738,0.898-1.363,1.568-1.874c0.67-0.511,1.453-0.903,2.352-1.176c0.896-0.273,1.867-0.409,2.914-0.409
					c0.363,0,0.76,0.017,1.191,0.051s0.869,0.085,1.312,0.153c0.443,0.068,0.875,0.165,1.295,0.29
					c0.42,0.125,0.801,0.278,1.143,0.46c-0.047,0.591-0.154,1.176-0.324,1.755c-0.17,0.579-0.449,1.165-0.836,1.755
					c-0.477-0.25-1.057-0.454-1.738-0.613c-0.68-0.159-1.328-0.239-1.941-0.239c-0.25,0-0.529,0.023-0.836,0.068
					c-0.307,0.046-0.596,0.125-0.867,0.238c-0.273,0.114-0.5,0.285-0.682,0.511c-0.184,0.228-0.273,0.511-0.273,0.852
					c0,0.682,0.432,1.216,1.295,1.602l1.328,0.58c0.432,0.182,0.854,0.392,1.262,0.63c0.408,0.239,0.771,0.528,1.09,0.869
					s0.574,0.738,0.768,1.193s0.289,0.988,0.289,1.602c0,1.136-0.227,2.119-0.682,2.948c-0.453,0.83-1.068,1.522-1.84,2.079
					s-1.688,0.971-2.742,1.244c-1.057,0.272-2.176,0.409-3.357,0.409c-0.729,0-1.533-0.074-2.42-0.222
					c-0.887-0.148-1.682-0.369-2.385-0.665c0.068-1.317,0.408-2.544,1.021-3.681c0.705,0.318,1.426,0.54,2.164,0.665
					c0.738,0.125,1.449,0.188,2.131,0.188c0.34,0,0.703-0.034,1.09-0.102c0.387-0.068,0.738-0.182,1.057-0.341
					c0.318-0.159,0.584-0.38,0.801-0.665c0.215-0.284,0.324-0.63,0.324-1.04c0-0.454-0.16-0.823-0.479-1.107s-0.76-0.54-1.328-0.767
					L177.879,100.926z"/>
			</g>
		</g>
		<g id="OBJECT_1_">
			<path fill-rule="evenodd" clip-rule="evenodd" d="M31.236,40.327l50.663-2.831c0,0,7.125-11.85,23.625-11.85
				c18.076,0,25.875,14.963,25.875,14.963c25.977-7.285,38.25,30.037,12.377,30.037c-18.15,0-132.302,0-132.302,0l51.413-3.037
				c-2.063-0.638-7.164-11.212,6.037-12.863c0,0-5.679,2.297-5.551,6.975c0.104,3.793,3.786,5.479,3.786,5.479l76.632-1.164
				c0.988,0.037,11.145-0.972,9.131-10.462c-1.943-9.167-13.424-14.175-23.1-10.125c0,0-7.35-16.274-24.225-16.574
				S83.022,40.311,83.022,40.311L31.236,40.327L31.236,40.327z M77.321,42.112c0,0-10.407-0.394-8.494,8.156l-44.893,2.563
				l50.199,0.006C69.947,48.972,71.558,43.453,77.321,42.112L77.321,42.112z"/>
		</g>
	</g>
	<g id="NEGATIVE">
		<g id="OBJECT_2_">
			<path fill-rule="evenodd" clip-rule="evenodd" fill="#00AEEF" d="M31.236,208.234l50.663-2.832c0,0,7.125-11.85,23.625-11.85
				c18.076,0,25.875,14.962,25.875,14.962c25.977-7.285,38.25,30.037,12.377,30.037c-18.15,0-132.302,0-132.302,0l51.413-3.037
				c-2.063-0.637-7.164-11.211,6.037-12.861c0,0-5.679,2.297-5.551,6.975c0.104,3.793,3.786,5.479,3.786,5.479l76.632-1.164
				c0.988,0.037,11.145-0.971,9.131-10.463c-1.943-9.166-13.424-14.175-23.1-10.125c0,0-7.35-16.275-24.225-16.575
				s-22.576,11.438-22.576,11.438L31.236,208.234L31.236,208.234z M77.321,210.019c0,0-10.407-0.394-8.494,8.156l-44.893,2.562
				l50.199,0.006C69.947,216.878,71.558,211.359,77.321,210.019L77.321,210.019z"/>
		</g>
		<g id="TEXT_2_">
			<text transform="matrix(1 0 0 1 -4.4009 276.6035)"><tspan x="0" y="0" fill="#00AEEF" font-family="'Aller-BoldItalic'" font-size="34.079">Cloud </tspan><tspan x="96.17" y="0" fill="#FFFFFF" font-family="'Aller-BoldItalic'" font-size="34.079">Express</tspan></text>
		</g>
	</g>
	<g id="MAIN_LOGO">
		<g id="TEXT">
			<text transform="matrix(1 0 0 1 -4.4009 -59.21)"><tspan x="0" y="0" fill="#00AEEF" font-family="'Aller-BoldItalic'" font-size="34.079">Cloud </tspan><tspan x="96.17" y="0" font-family="'Aller-BoldItalic'" font-size="34.079">Express</tspan></text>
		</g>
		<g id="OBJECT">
			<path fill-rule="evenodd" clip-rule="evenodd" fill="#00AEEF" d="M31.236-127.58l50.663-2.831c0,0,7.125-11.85,23.625-11.85
				c18.076,0,25.875,14.963,25.875,14.963c25.977-7.285,38.25,30.037,12.377,30.037c-18.15,0-132.302,0-132.302,0l51.413-3.037
				c-2.063-0.637-7.164-11.212,6.037-12.862c0,0-5.679,2.297-5.551,6.975c0.104,3.793,3.786,5.479,3.786,5.479l76.632-1.164
				c0.988,0.037,11.145-0.972,9.131-10.463c-1.943-9.167-13.424-14.175-23.1-10.125c0,0-7.35-16.274-24.225-16.574
				c-16.875-0.3-22.576,11.438-22.576,11.438L31.236-127.58L31.236-127.58z M77.321-125.795c0,0-10.407-0.394-8.494,8.156
				l-44.893,2.563l50.199,0.006C69.947-118.935,71.558-124.455,77.321-125.795L77.321-125.795z"/>
		</g>
	</g>
</g>
</svg>
